<?xml version="1.0" standalone="no"?>
<!DOCTYPE svg PUBLIC "-//W3C//DTD SVG 20010904//EN"
 "http://www.w3.org/TR/2001/REC-SVG-20010904/DTD/svg10.dtd">
<svg version="1.0" xmlns="http://www.w3.org/2000/svg"
 width="4000.000000pt" height="4000.000000pt" viewBox="0 0 4000.000000 4000.000000"
 preserveAspectRatio="xMidYMid meet">

<g transform="translate(0.000000,4000.000000) scale(0.100000,-0.100000)"
fill="#000000" stroke="none">
<path d="M35600 34589 c-249 -29 -348 -50 -446 -95 -73 -33 -151 -107 -187
-176 -56 -106 -237 -344 -451 -589 -380 -438 -491 -591 -677 -934 -78 -143
-329 -656 -329 -671 0 -7 -105 -216 -141 -282 -83 -151 -305 -522 -544 -912
-283 -460 -363 -601 -438 -766 -31 -68 -114 -220 -250 -454 -49 -85 -97 -168
-107 -185 -79 -139 -590 -991 -755 -1260 -376 -614 -582 -948 -714 -1157 -33
-54 -87 -140 -119 -190 -134 -213 -260 -410 -332 -518 -68 -102 -196 -305
-575 -915 -296 -476 -398 -645 -501 -831 -99 -179 -218 -365 -515 -804 -421
-622 -996 -1451 -1088 -1568 -162 -207 -520 -730 -696 -1017 -44 -71 -218
-341 -389 -600 -392 -596 -2543 -3825 -2562 -3846 -14 -15 -53 -29 -329 -116
-176 -55 -363 -118 -455 -152 -178 -67 -484 -166 -700 -225 -175 -48 -241 -65
-387 -97 -91 -19 -139 -31 -178 -40 -22 -6 -56 -15 -75 -19 -287 -73 -526
-162 -639 -239 -108 -74 -133 -123 -112 -223 19 -99 47 -173 121 -324 65 -132
213 -367 297 -472 95 -119 219 -253 282 -306 39 -32 130 -99 204 -149 152
-104 278 -204 303 -242 16 -24 15 -29 -10 -104 -25 -76 -131 -335 -194 -471
-16 -36 -39 -85 -50 -110 -11 -25 -39 -85 -62 -135 -153 -329 -220 -474 -220
-480 0 -2 -13 -34 -30 -70 -16 -36 -30 -68 -30 -70 0 -3 -9 -25 -20 -50 -46
-103 -63 -144 -185 -450 -70 -176 -131 -329 -135 -340 -27 -66 -100 -263 -165
-440 -20 -55 -45 -122 -55 -150 -76 -203 -285 -833 -350 -1055 -12 -41 -26
-86 -31 -100 -26 -78 -101 -349 -168 -615 -63 -245 -81 -324 -140 -615 -5 -25
-15 -76 -21 -115 -6 -38 -15 -95 -20 -125 -27 -167 -45 -306 -76 -580 -38
-350 -38 -710 1 -714 6 -1 20 36 31 82 12 46 26 94 33 108 18 40 50 28 90 -34
34 -53 65 -67 75 -34 14 48 26 158 26 252 0 174 41 361 99 453 55 85 81 56 81
-90 0 -54 -7 -147 -15 -208 -9 -60 -20 -144 -25 -185 -6 -41 -14 -104 -19
-140 -5 -36 -15 -101 -21 -145 -6 -44 -16 -109 -21 -145 -5 -36 -14 -99 -19
-140 -5 -41 -14 -106 -20 -145 -5 -38 -18 -142 -30 -230 -11 -88 -23 -175 -26
-192 -4 -18 -2 -33 2 -33 5 1 70 82 144 181 74 99 154 205 178 237 55 72 106
159 176 298 54 108 116 240 116 249 0 2 11 28 24 57 58 127 213 556 277 766
10 34 28 92 40 130 11 37 24 81 29 97 154 557 203 781 216 986 10 152 -3 152
-110 -1 -90 -127 -157 -183 -200 -167 -42 16 -40 157 5 322 12 44 25 96 30
115 19 83 28 112 43 135 28 42 46 29 56 -40 8 -66 33 -54 130 65 47 58 95 107
105 109 14 2 16 -1 10 -15 -23 -56 -37 -106 -31 -120 5 -13 11 -13 46 7 22 13
46 32 54 43 37 58 66 220 66 372 0 185 72 389 173 493 76 79 118 92 238 76 42
-6 62 -4 85 8 42 22 97 84 132 149 31 57 38 75 92 233 97 282 276 638 490 975
143 226 296 419 396 500 82 67 103 97 111 159 4 38 2 57 -11 77 -11 15 -15 35
-12 49 9 35 76 119 138 173 147 128 279 302 300 393 15 65 71 177 159 317 71
115 130 194 300 404 65 78 130 166 146 193 16 28 47 62 69 76 74 50 256 136
368 174 150 51 195 69 331 128 137 60 692 334 930 460 66 34 183 96 260 136
77 40 154 81 170 91 17 9 84 45 150 80 66 34 143 75 170 90 28 15 124 67 215
115 91 48 189 101 218 116 28 16 76 42 105 58 49 27 82 44 267 144 92 50 164
88 233 126 28 15 81 44 117 63 85 46 407 221 488 264 34 19 92 50 130 70 37
20 90 49 117 64 110 61 550 280 710 353 162 75 186 85 238 106 12 5 43 18 69
30 26 12 50 21 53 21 2 0 34 14 70 30 36 17 68 30 70 30 2 0 33 13 67 28 117
53 178 76 185 69 7 -8 -3 -101 -43 -387 -13 -96 -33 -242 -44 -325 -12 -82
-25 -179 -30 -215 -5 -36 -14 -108 -20 -160 -6 -52 -15 -129 -20 -170 -25
-206 -53 -498 -79 -840 -28 -349 -51 -932 -51 -1245 1 -332 29 -869 60 -1140
5 -49 14 -130 20 -180 27 -256 51 -433 100 -745 38 -240 114 -641 160 -847 6
-24 14 -62 19 -85 6 -24 19 -83 31 -133 12 -49 23 -99 26 -110 13 -56 75 -284
103 -381 67 -225 107 -306 217 -431 163 -185 269 -341 313 -458 62 -167 92
-195 210 -195 150 0 283 73 332 182 22 48 24 66 23 193 -1 132 -15 235 -65
495 -46 237 -73 548 -100 1170 -16 378 -23 1907 -10 2285 16 466 36 788 61
973 21 152 32 229 40 287 21 135 83 497 106 619 14 72 29 154 34 181 5 28 13
70 18 95 5 25 17 81 26 125 9 44 20 98 25 120 5 22 15 67 22 100 6 33 20 92
29 130 9 39 23 97 30 130 26 119 82 333 130 495 48 159 92 322 109 405 5 22
18 85 30 140 11 55 25 116 30 135 6 19 14 51 19 70 17 64 73 193 113 262 131
225 353 404 669 542 36 16 79 34 95 41 110 49 330 121 555 184 80 23 159 45
175 50 31 9 177 45 250 61 366 80 725 181 1045 295 41 14 84 30 95 35 42 19
448 150 576 185 148 41 312 102 404 150 81 43 84 65 15 100 -54 28 -69 48 -53
73 20 33 100 42 362 42 147 0 281 5 315 11 87 17 190 48 225 70 40 24 94 108
81 124 -12 14 -70 6 -145 -19 -48 -16 -61 -21 -115 -44 -252 -105 -387 -93
-266 24 46 44 232 144 268 144 60 0 275 92 360 155 88 65 161 197 127 229 -29
27 -85 36 -230 36 -277 0 -706 -68 -945 -150 -117 -41 -150 -15 -100 80 21 40
24 55 16 70 -15 27 -42 40 -88 40 -75 0 -142 -44 -156 -103 -4 -15 -16 -37
-28 -49 -19 -19 -26 -20 -87 -12 -86 12 -239 8 -426 -11 -141 -14 -413 -49
-480 -61 -16 -3 -56 -10 -87 -15 -116 -18 -174 -28 -230 -39 -32 -5 -83 -14
-113 -20 -30 -5 -80 -14 -110 -20 -30 -5 -79 -14 -107 -20 -443 -80 -897 -140
-1066 -140 -47 0 -83 5 -90 12 -14 14 -16 93 -3 169 5 30 14 88 21 129 10 67
50 268 70 360 4 19 13 58 19 85 30 141 148 592 212 810 33 110 36 120 98 310
150 458 224 728 257 943 15 103 27 145 74 272 18 47 34 94 38 105 9 34 177
423 230 535 89 187 252 564 252 583 0 4 9 26 19 50 74 166 154 408 206 627 46
190 123 416 190 555 50 104 142 390 213 665 63 239 73 276 81 300 5 14 14 43
20 65 48 172 228 688 252 720 4 6 23 52 43 104 34 89 65 161 193 451 31 69 65
145 75 170 11 25 31 69 44 98 13 29 24 55 24 57 0 2 11 28 24 57 112 247 243
604 306 833 41 149 112 348 165 460 123 259 184 568 185 930 0 334 -41 544
-150 760 -89 178 -113 296 -90 435 36 216 164 434 407 693 292 311 357 483
308 809 -13 89 -54 270 -74 328 -5 14 -19 59 -31 100 -164 557 -298 767 -545
855 -96 34 -365 46 -555 24z m-3170 -8819 c39 -21 35 -61 -20 -250 -15 -52
-33 -120 -40 -150 -31 -141 -128 -402 -250 -675 -120 -267 -230 -612 -245
-765 -8 -85 -54 -337 -95 -520 -4 -19 -13 -60 -20 -90 -7 -30 -16 -71 -20 -90
-4 -19 -13 -57 -19 -85 -20 -96 -89 -351 -134 -495 -72 -232 -116 -428 -115
-505 1 -52 -31 -144 -92 -265 -60 -120 -130 -319 -130 -370 0 -21 4 -50 10
-64 11 -30 0 -138 -27 -249 -15 -64 -63 -208 -121 -367 -27 -73 -59 -197 -78
-295 -8 -44 -43 -172 -79 -285 -35 -113 -74 -236 -86 -275 -76 -252 -179 -330
-634 -479 -126 -42 -243 -80 -260 -85 -16 -5 -77 -24 -135 -41 -243 -74 -717
-243 -755 -270 -9 -6 -61 -27 -252 -99 -43 -17 -132 -49 -198 -72 -131 -45
-232 -84 -340 -131 -65 -28 -88 -38 -205 -90 -54 -24 -121 -55 -215 -98 -87
-40 -367 -179 -380 -190 -64 -48 -236 -114 -326 -126 -97 -12 -331 -102 -549
-211 -68 -35 -132 -63 -141 -63 -46 0 -25 79 32 122 76 57 89 74 89 120 -1 24
-7 54 -15 68 -20 35 -18 84 3 110 14 17 35 25 83 31 56 8 233 37 428 71 115
20 229 76 292 144 148 157 135 147 179 140 37 -6 40 -4 40 16 0 32 -27 153
-46 210 -17 53 -37 78 -61 78 -22 0 -146 -122 -304 -302 -150 -169 -220 -234
-244 -224 -75 28 170 376 466 662 108 104 192 164 230 164 55 0 76 -64 58
-176 -18 -113 -22 -174 -12 -174 19 0 51 31 105 102 146 190 321 506 355 639
31 122 -1 129 -136 28 -109 -81 -144 -88 -149 -31 -7 70 87 210 236 355 130
125 156 118 107 -27 -27 -82 -31 -126 -13 -144 54 -54 211 69 368 288 92 128
132 209 138 276 4 48 2 54 -15 54 -24 0 -63 -29 -141 -106 -83 -83 -149 -126
-187 -122 -40 4 -43 27 -11 91 29 61 234 290 294 330 60 39 104 37 138 -8 14
-19 33 -35 40 -35 17 0 17 -5 -2 77 -24 102 -15 266 20 357 32 84 58 127 110
184 45 49 83 72 121 72 30 0 75 -21 95 -45 20 -24 71 -48 101 -47 50 1 113 44
209 141 159 160 358 444 473 676 51 103 169 280 246 372 98 116 220 287 436
613 312 471 426 659 445 733 22 87 71 161 325 492 386 504 536 707 663 897 90
135 127 208 146 286 16 70 40 113 88 158 46 44 88 55 128 34z m1288 -775 c2
-40 -16 -83 -108 -250 -57 -104 -98 -139 -131 -109 -24 21 -24 46 0 117 26 79
77 162 142 230 68 70 93 73 97 12z m-3421 -101 c88 -66 101 -98 57 -139 -19
-18 -38 -25 -65 -25 -75 0 -137 115 -97 180 19 29 52 24 105 -16z m-26 -325
c18 -18 21 -30 17 -79 -7 -101 -84 -184 -212 -229 -52 -18 -80 -21 -171 -19
-103 3 -110 4 -113 24 -7 50 163 223 282 287 79 42 164 49 197 16z m-390 -497
c81 -52 122 -111 156 -226 10 -35 11 -52 4 -59 -8 -8 -14 -8 -23 1 -42 42
-170 -15 -292 -129 -52 -48 -94 -79 -104 -77 -29 5 -38 130 -18 247 22 127 37
192 48 214 32 62 153 77 229 29z m3489 -216 c0 -34 -19 -115 -57 -241 -13 -43
-40 -80 -59 -80 -73 0 -35 296 49 379 l30 30 18 -23 c12 -14 19 -39 19 -65z
m-221 -447 c16 -45 14 -286 -4 -415 -24 -183 -66 -312 -98 -301 -7 2 -15 37
-20 83 -10 96 -1 475 12 524 5 19 12 47 15 61 8 36 44 79 66 79 11 0 22 -12
29 -31z m-4014 -236 c-25 -58 -9 -142 38 -205 64 -85 50 -180 -57 -383 -81
-154 -350 -574 -493 -770 -190 -260 -484 -713 -541 -833 -18 -39 -71 -101
-191 -225 -233 -240 -421 -483 -421 -542 0 -64 -62 -166 -160 -264 -36 -36
-89 -93 -117 -126 -114 -135 -375 -534 -504 -770 -176 -325 -533 -822 -847
-1177 -106 -120 -181 -187 -351 -308 -96 -68 -131 -84 -131 -57 0 7 47 108
105 224 90 182 112 220 162 270 74 75 116 90 199 68 99 -26 100 -24 48 61 -35
58 -35 61 -32 149 3 79 7 99 40 167 41 87 101 153 148 163 25 6 39 2 68 -19
20 -14 37 -24 39 -22 2 2 -4 17 -14 34 -15 27 -16 36 -5 79 17 62 58 133 146
252 148 198 380 554 506 774 118 205 213 336 280 382 38 26 41 27 58 11 29
-26 35 -19 11 14 -60 80 14 285 159 441 95 103 156 131 217 102 51 -24 57 -10
49 107 -7 114 7 184 43 223 22 22 35 27 77 27 32 0 62 7 82 19 35 21 64 75 64
118 0 16 7 54 16 84 35 118 103 220 228 344 117 115 331 454 446 705 107 234
266 445 459 609 86 74 121 130 121 196 0 54 20 95 47 95 11 0 13 -5 8 -17z
m991 -286 c17 -45 -232 -397 -377 -532 -98 -92 -159 -128 -159 -95 0 51 259
409 401 553 84 85 122 106 135 74z m2692 -583 c29 -19 62 -72 62 -100 0 -43
-35 -59 -129 -59 -141 1 -174 38 -103 116 60 68 111 81 170 43z m-3393 -366
c-20 -34 -56 -103 -80 -154 -76 -163 -126 -218 -164 -180 -15 16 -14 21 18 79
40 73 163 244 217 302 50 54 54 31 9 -47z m3293 70 c14 -14 16 -155 3 -225 -5
-26 -14 -79 -21 -118 -60 -363 -194 -780 -281 -875 -42 -45 -79 -39 -97 15
-26 77 13 315 93 561 19 59 35 116 35 126 0 28 48 202 82 298 16 47 33 101 38
120 11 53 18 63 53 88 35 24 76 29 95 10z m-460 -1513 c4 -82 -10 -186 -45
-340 -31 -131 -43 -162 -78 -195 -32 -30 -55 -20 -69 30 -11 37 7 212 31 300
8 30 18 69 23 86 12 49 59 147 83 172 37 39 52 25 55 -53z m-5577 -532 c-5
-10 -46 -58 -90 -108 -45 -49 -129 -145 -188 -212 -59 -68 -112 -123 -119
-123 -6 0 -17 7 -24 15 -31 37 44 127 263 315 148 127 178 148 158 113z m9197
-224 c41 -14 46 -33 17 -67 -45 -54 -199 -111 -346 -128 -52 -6 -58 -5 -69 16
-10 19 -9 27 6 47 18 24 95 73 114 73 5 0 34 11 64 25 92 42 160 53 214 34z
m-4485 -2269 c98 -200 101 -216 101 -405 0 -160 -12 -248 -50 -362 -37 -114
-95 -202 -143 -218 -80 -25 -129 106 -102 269 24 138 67 235 142 322 22 25 38
48 36 50 -2 3 -37 -14 -76 -37 -93 -54 -100 -48 -73 63 31 123 50 222 62 329
11 101 17 129 28 129 4 0 38 -63 75 -140z m-167 -1396 c15 -36 39 -234 37
-311 -1 -82 -55 -120 -100 -70 -89 97 -95 300 -12 385 40 41 57 40 75 -4z
m-166 -529 c22 -46 26 -179 6 -210 -22 -34 -44 -31 -60 8 -25 61 -28 123 -10
182 20 63 39 69 64 20z m56 -443 c15 -21 25 -57 30 -100 8 -78 -1 -281 -16
-350 -6 -26 -15 -69 -21 -97 -23 -107 -62 -215 -99 -270 -51 -78 -104 -41
-118 82 -8 70 -5 126 18 318 24 204 73 381 123 443 18 22 60 9 83 -26z m-646
-92 c14 -35 9 -155 -10 -207 -15 -42 -38 -50 -50 -17 -13 33 -13 195 0 228 13
36 44 34 60 -4z m-6532 -759 c8 -78 -81 -202 -216 -304 -107 -79 -120 -57 -43
71 27 44 60 97 73 116 31 45 158 158 172 153 6 -2 12 -18 14 -36z m7032 -467
c30 -90 -2 -303 -41 -278 -10 6 -13 307 -3 317 12 12 33 -6 44 -39z m-8167
-401 c22 -76 -27 -163 -91 -163 -50 0 -102 33 -102 64 0 18 18 39 68 81 79 65
111 70 125 18z m8186 -93 c22 -11 48 -31 59 -45 62 -79 50 -205 -20 -205 -49
0 -137 127 -140 203 -2 66 32 83 101 47z m-7911 -289 c3 -22 -18 -101 -38
-146 -5 -11 -21 -49 -36 -85 -14 -36 -78 -167 -141 -292 -124 -246 -127 -249
-180 -204 l-28 25 23 68 c21 62 137 305 180 378 121 206 182 290 206 282 6 -2
12 -14 14 -26z m-691 -135 c27 -23 28 -27 26 -113 -1 -48 -6 -106 -11 -128 -6
-22 -15 -65 -22 -95 -85 -391 -355 -1078 -527 -1345 -83 -128 -143 -296 -143
-400 0 -58 -29 -128 -58 -144 -31 -17 -108 -14 -126 5 -9 8 -16 16 -16 17 2
24 123 339 175 452 103 228 233 665 197 665 -14 0 -24 -15 -82 -125 -88 -167
-159 -260 -181 -238 -14 14 16 123 89 318 86 230 180 373 261 395 95 25 280
296 357 522 25 74 33 181 14 193 -15 9 -12 45 4 45 8 0 27 -11 43 -24z m8632
-172 c44 -32 63 -97 68 -245 6 -154 -3 -195 -37 -164 -11 10 -44 58 -74 109
-86 141 -106 219 -72 271 29 44 76 56 115 29z m-8526 -697 c26 -18 32 -78 13
-119 -21 -43 -69 -63 -132 -53 -59 8 -71 31 -45 82 22 43 43 65 86 87 36 19
56 20 78 3z m-277 -645 c21 -13 104 -122 104 -135 0 -26 -25 -37 -81 -37 -46
0 -63 5 -84 23 -55 47 -40 157 23 157 15 0 32 -4 38 -8z m-646 -92 c32 -32 24
-60 -35 -130 -89 -105 -115 -105 -123 0 -7 100 26 150 100 150 25 0 45 -7 58
-20z m-498 -1567 c14 -13 18 -31 18 -89 0 -164 -96 -291 -168 -224 -42 40 -41
121 3 218 46 101 101 137 147 95z m100 -420 c15 -13 18 -32 18 -103 0 -99 -19
-163 -48 -158 -15 3 -17 19 -20 121 -2 107 6 157 25 157 4 0 15 -7 25 -17z
m-371 -217 c63 -43 99 -145 99 -284 0 -92 -10 -117 -35 -91 -24 25 -121 193
-143 248 -51 125 -12 188 79 127z"/>
<path d="M29063 21308 c-38 -39 -72 -112 -73 -151 0 -68 64 -122 116 -98 58
26 86 180 44 249 -11 17 -28 32 -38 32 -10 0 -32 -15 -49 -32z"/>
<path d="M17530 34320 c-25 -5 -90 -14 -145 -20 -150 -17 -255 -38 -315 -62
-63 -26 -79 -35 -142 -75 -155 -101 -316 -321 -547 -751 -109 -202 -408 -804
-528 -1062 -49 -105 -157 -321 -238 -475 -37 -71 -95 -182 -128 -245 -85 -163
-156 -297 -187 -355 -92 -169 -138 -249 -181 -315 -26 -41 -46 -77 -43 -81 2
-3 31 -17 66 -30 34 -12 57 -24 52 -26 -5 -2 -144 46 -310 106 -165 60 -347
123 -404 140 -58 17 -154 47 -215 67 -60 19 -120 34 -132 34 -12 0 -58 12
-103 26 -45 14 -99 27 -120 30 -21 2 -64 13 -96 24 -31 11 -68 20 -82 20 -13
0 -59 9 -101 19 -132 33 -170 41 -200 41 -16 0 -48 7 -71 15 -23 8 -46 13 -50
10 -5 -3 -28 -1 -52 4 -92 21 -194 37 -279 46 -25 2 -58 9 -74 15 -21 8 -30 8
-35 -1 -6 -8 -13 -8 -28 0 -11 6 -31 11 -44 11 -19 -1 -17 -3 12 -16 19 -8 43
-13 53 -10 22 5 77 -12 77 -25 0 -5 -6 -9 -14 -9 -8 0 -21 -24 -31 -57 -22
-75 -37 -119 -75 -223 -18 -47 -34 -95 -37 -108 -3 -12 -9 -25 -14 -28 -5 -3
-9 -16 -9 -29 0 -13 -5 -27 -11 -31 -6 -3 -8 -16 -5 -29 4 -15 1 -25 -9 -29
-21 -8 -19 -24 5 -31 11 -3 20 -11 20 -16 0 -13 -40 -1 -63 19 -19 17 -30 12
-22 -10 6 -15 64 -36 100 -36 11 0 52 -6 90 -12 39 -7 84 -13 102 -15 17 -1
52 -8 78 -15 25 -7 48 -10 51 -7 3 3 24 -1 46 -9 22 -8 52 -14 67 -14 23 0 81
-11 211 -42 25 -6 65 -14 90 -18 25 -3 70 -14 100 -22 30 -9 87 -24 125 -33
148 -37 244 -63 355 -98 63 -19 139 -41 168 -47 29 -7 223 -73 430 -147 207
-74 391 -139 407 -144 27 -8 28 -7 11 6 -10 8 -23 16 -27 17 -10 3 -2 34 31
118 11 30 32 89 46 130 13 41 29 83 34 92 12 20 56 145 72 201 6 20 16 37 22
37 6 0 69 -20 140 -45 71 -25 139 -45 152 -45 13 0 47 -9 76 -21 55 -21 272
-123 298 -139 8 -5 47 -25 85 -44 39 -20 77 -40 85 -45 8 -5 29 -16 45 -24 35
-16 299 -162 353 -194 21 -12 57 -33 82 -47 118 -68 334 -207 554 -356 25 -17
156 -110 171 -122 6 -4 24 -19 41 -33 18 -14 37 -25 42 -25 6 0 37 44 68 98
31 53 91 153 132 222 73 122 195 333 262 455 18 33 49 89 70 125 20 36 48 85
62 110 13 25 52 95 85 155 273 492 416 808 464 1020 39 177 43 211 43 490 1
265 -3 325 -35 540 -55 371 -173 679 -416 1086 -138 230 -231 342 -319 384
-86 41 -191 53 -294 35z m-4535 -2940 c3 -5 2 -10 -4 -10 -5 0 -13 5 -16 10
-3 6 -2 10 4 10 5 0 13 -4 16 -10z m-54 -63 c-16 -16 -25 -1 -10 16 8 8 16 11
18 5 2 -5 -2 -15 -8 -21z m-101 -537 c0 -12 -37 0 -51 16 -9 12 -6 12 20 3 17
-6 31 -15 31 -19z m2525 -25 c77 -27 189 -79 178 -82 -11 -4 -292 104 -307
118 -9 8 40 -6 129 -36z m-295 -521 c0 -8 -4 -12 -10 -9 -5 3 -10 10 -10 16 0
5 5 9 10 9 6 0 10 -7 10 -16z m-13 -39 c0 -8 -7 -15 -15 -15 -12 0 -12 3 -2
15 7 8 13 15 15 15 1 0 2 -7 2 -15z"/>
<path d="M12275 31480 c3 -5 8 -10 11 -10 2 0 4 5 4 10 0 6 -5 10 -11 10 -5 0
-7 -4 -4 -10z"/>
<path d="M12440 31466 c0 -2 7 -7 16 -10 8 -3 12 -2 9 4 -6 10 -25 14 -25 6z"/>
<path d="M12524 31456 c23 -18 36 -20 36 -6 0 6 -4 10 -9 10 -5 0 -18 3 -28 6
-16 5 -16 4 1 -10z"/>
<path d="M12595 31450 c3 -5 16 -10 28 -10 18 0 19 2 7 10 -20 13 -43 13 -35
0z"/>
<path d="M12690 31441 c0 -4 16 -12 35 -18 20 -6 35 -7 35 -2 0 5 -1 9 -3 9
-1 0 -17 4 -35 9 -17 5 -32 6 -32 2z"/>
<path d="M12860 31321 c0 -6 5 -13 10 -16 6 -3 10 1 10 9 0 9 -4 16 -10 16 -5
0 -10 -4 -10 -9z"/>
<path d="M12846 31291 c-4 -7 -5 -15 -2 -18 9 -9 19 4 14 18 -4 11 -6 11 -12
0z"/>
<path d="M12218 30823 c7 -3 16 -2 19 1 4 3 -2 6 -13 5 -11 0 -14 -3 -6 -6z"/>
<path d="M12280 30826 c0 -2 7 -7 16 -10 8 -3 12 -2 9 4 -6 10 -25 14 -25 6z"/>
<path d="M12355 30820 c3 -5 14 -10 23 -10 15 0 15 2 2 10 -20 13 -33 13 -25
0z"/>
<path d="M12430 30810 c8 -5 24 -10 35 -10 17 0 17 2 5 10 -8 5 -24 10 -35 10
-17 0 -17 -2 -5 -10z"/>
<path d="M12495 30811 c6 -5 24 -13 40 -17 20 -4 27 -3 20 3 -5 6 -23 14 -40
17 -20 5 -27 4 -20 -3z"/>
<path d="M12600 30801 c0 -5 14 -14 31 -20 39 -13 39 -13 39 -2 0 5 -14 14
-31 20 -39 13 -39 13 -39 2z"/>
<path d="M15700 30582 c8 -5 26 -13 40 -16 17 -5 20 -4 10 2 -8 5 -26 13 -40
16 -17 5 -20 4 -10 -2z"/>
<path d="M15160 30105 c0 -8 89 -45 103 -44 7 0 -10 11 -38 24 -52 25 -65 29
-65 20z"/>
<path d="M9905 30060 c3 -5 8 -10 11 -10 2 0 4 5 4 10 0 6 -5 10 -11 10 -5 0
-7 -4 -4 -10z"/>
<path d="M15290 30050 c8 -5 20 -10 25 -10 6 0 3 5 -5 10 -8 5 -19 10 -25 10
-5 0 -3 -5 5 -10z"/>
<path d="M9835 30040 c3 -5 8 -10 11 -10 2 0 4 5 4 10 0 6 -5 10 -11 10 -5 0
-7 -4 -4 -10z"/>
<path d="M9755 30026 c-28 -8 -36 -14 -26 -20 8 -5 16 -4 20 3 4 6 15 9 24 5
10 -4 17 -1 17 6 0 7 7 10 15 6 8 -3 15 -1 15 4 0 12 -15 12 -65 -4z"/>
<path d="M9680 30010 c0 -7 -7 -10 -15 -6 -8 3 -15 1 -15 -5 0 -6 -9 -8 -20
-4 -11 4 -20 2 -20 -4 0 -6 -7 -8 -16 -4 -13 5 -15 2 -9 -18 7 -22 7 -22 -9
-6 -20 19 -36 22 -36 6 0 -5 -4 -8 -9 -5 -11 7 -345 -89 -421 -121 -8 -3 -18
-5 -22 -5 -5 1 -8 -3 -8 -9 0 -6 -6 -9 -14 -6 -7 3 -17 2 -22 -3 -5 -4 -61
-24 -124 -45 -63 -21 -116 -42 -118 -46 -2 -5 -8 -9 -14 -9 -17 0 -273 -103
-279 -113 -3 -5 -10 -9 -15 -9 -14 -1 -53 -16 -109 -43 -170 -81 -211 -99
-217 -97 -5 1 -8 -2 -8 -6 0 -5 -18 -15 -40 -22 -22 -7 -40 -16 -40 -20 0 -4
-18 -13 -40 -20 -22 -7 -40 -17 -40 -22 0 -4 -3 -7 -7 -6 -11 2 -67 -25 -75
-37 -5 -6 -8 -6 -8 0 0 7 -3 7 -8 0 -8 -12 -57 -40 -94 -56 -16 -6 -28 -15
-28 -21 0 -5 -4 -7 -8 -4 -5 3 -18 -3 -29 -14 -12 -10 -24 -16 -27 -12 -4 3
-10 2 -14 -3 -4 -6 -25 -20 -47 -32 -23 -12 -39 -28 -39 -38 2 -13 -1 -14 -13
-3 -14 11 -15 10 -10 -7 3 -11 8 -42 12 -69 5 -36 11 -50 26 -53 16 -5 19 -11
14 -33 -7 -33 14 -89 44 -119 12 -12 19 -26 16 -31 -4 -6 -3 -16 2 -22 4 -7 8
-20 9 -28 1 -8 2 -23 3 -32 0 -10 8 -18 17 -18 11 0 14 -5 10 -16 -3 -9 -6
-18 -6 -20 0 -2 -6 -4 -14 -4 -8 0 -17 -7 -20 -16 -3 -8 -10 -12 -16 -9 -5 3
-10 -1 -10 -10 0 -9 -4 -14 -8 -11 -11 6 -68 -51 -60 -60 6 -5 38 18 80 59 10
9 21 17 24 17 4 0 18 12 32 28 14 15 27 25 28 22 1 -3 14 5 28 18 15 12 28 22
31 22 5 0 97 69 105 79 3 3 17 12 33 20 15 8 27 18 27 23 0 4 5 8 10 8 6 0 20
9 32 20 12 11 28 20 35 20 7 0 13 5 13 10 0 6 7 10 15 10 8 0 15 4 15 8 0 5
12 15 28 23 15 8 36 22 46 32 11 9 26 17 33 17 7 0 13 5 13 10 0 6 6 10 14 10
8 0 21 6 28 13 7 6 25 18 40 26 15 8 36 21 46 30 18 16 57 39 117 69 17 9 32
18 35 21 5 6 37 25 85 50 16 9 33 21 37 26 4 6 8 7 8 2 0 -4 18 4 40 18 67 42
369 193 374 187 4 -3 6 -1 6 5 0 5 18 16 40 23 22 7 40 16 40 20 0 3 25 14 55
25 30 10 55 21 55 25 0 4 25 15 55 25 30 11 55 23 55 27 0 4 3 7 8 6 7 -1 59
19 127 51 22 11 59 25 83 32 23 7 42 16 42 21 0 5 5 6 12 2 8 -5 9 0 5 15 -5
22 -5 22 15 4 21 -18 21 -18 15 5 -4 19 -3 21 8 12 15 -12 95 6 95 21 0 5 7 6
15 3 8 -4 15 -1 15 6 0 6 5 8 10 5 6 -3 10 -1 10 5 0 7 -7 9 -16 6 -49 -19
-60 -17 -72 9 -7 14 -12 42 -12 62 0 33 -2 35 -26 30 -19 -3 -24 -1 -20 9 3 8
9 21 12 29 3 8 1 15 -5 15 -6 0 -11 -4 -11 -10 0 -5 -7 -7 -15 -4 -8 4 -15 10
-15 15 0 4 7 6 15 3 8 -4 15 -1 15 6 0 7 7 10 16 6 10 -4 14 -1 12 6 -6 16
-28 22 -28 8z m-65 -140 c3 -5 1 -10 -4 -10 -6 0 -11 5 -11 10 0 6 2 10 4 10
3 0 8 -4 11 -10z m125 -60 c0 -5 -4 -10 -10 -10 -5 0 -10 5 -10 10 0 6 5 10
10 10 6 0 10 -4 10 -10z m-22 -19 c3 -8 -1 -12 -9 -9 -7 2 -15 10 -17 17 -3 8
1 12 9 9 7 -2 15 -10 17 -17z m-1915 -1036 c-3 -9 -8 -14 -10 -11 -3 3 -2 9 2
15 9 16 15 13 8 -4z m-36 -27 c-3 -8 -6 -5 -6 6 -1 11 2 17 5 13 3 -3 4 -12 1
-19z"/>
<path d="M9915 29850 c3 -5 8 -10 11 -10 2 0 4 5 4 10 0 6 -5 10 -11 10 -5 0
-7 -4 -4 -10z"/>
<path d="M9885 29840 c3 -5 8 -10 11 -10 2 0 4 5 4 10 0 6 -5 10 -11 10 -5 0
-7 -4 -4 -10z"/>
<path d="M10208 29283 c7 -3 16 -2 19 1 4 3 -2 6 -13 5 -11 0 -14 -3 -6 -6z"/>
<path d="M10030 29240 c0 -6 7 -10 15 -10 8 0 15 2 15 4 0 2 -7 6 -15 10 -8 3
-15 1 -15 -4z"/>
<path d="M10075 29240 c3 -5 8 -10 11 -10 2 0 4 5 4 10 0 6 -5 10 -11 10 -5 0
-7 -4 -4 -10z"/>
<path d="M10000 29231 c0 -5 5 -13 10 -16 6 -3 10 -2 10 4 0 5 -4 13 -10 16
-5 3 -10 2 -10 -4z"/>
<path d="M9930 29206 c0 -4 -6 -6 -14 -3 -8 3 -16 2 -18 -4 -2 -5 -18 -10 -36
-12 -17 -1 -32 -6 -32 -11 0 -4 -7 -6 -15 -2 -8 3 -15 2 -15 -3 0 -4 -35 -18
-77 -30 -43 -13 -95 -31 -117 -42 -21 -10 -43 -16 -47 -13 -5 3 -9 1 -9 -3 0
-5 -38 -22 -85 -38 -47 -16 -85 -32 -85 -36 0 -4 -12 -10 -27 -14 -37 -9 -164
-65 -283 -125 -178 -90 -245 -125 -251 -133 -3 -5 -10 -8 -15 -8 -5 1 -26 -10
-46 -23 -21 -14 -47 -27 -58 -31 -11 -3 -20 -11 -20 -16 0 -5 -6 -9 -12 -9 -7
0 -40 -18 -73 -40 -33 -22 -66 -40 -72 -40 -7 0 -13 -4 -13 -9 0 -5 -13 -14
-30 -21 -16 -7 -30 -16 -30 -20 0 -4 -10 -10 -22 -14 -13 -3 -35 -16 -49 -30
-15 -14 -30 -22 -33 -19 -3 4 -6 1 -6 -5 0 -7 -7 -12 -15 -12 -8 0 -15 -5 -15
-10 0 -6 -12 -16 -27 -23 -16 -6 -36 -19 -47 -29 -10 -9 -38 -29 -62 -44 -24
-15 -44 -32 -44 -36 0 -4 -6 -8 -14 -8 -8 0 -17 -7 -20 -16 -4 -9 -9 -14 -12
-11 -10 10 -52 -34 -49 -51 1 -9 0 -11 -2 -4 -5 14 -23 16 -23 2 0 -5 -6 -10
-14 -10 -21 0 -30 -18 -17 -34 11 -13 5 -26 -10 -26 -5 0 -6 7 -3 15 10 24
-15 17 -41 -11 -14 -15 -25 -23 -25 -18 0 5 -4 4 -8 -1 -4 -6 -27 -26 -52 -45
-67 -52 -84 -69 -77 -77 4 -3 7 -1 7 5 0 7 7 12 15 12 9 0 18 7 21 15 4 8 13
15 20 15 8 0 17 7 20 15 4 8 10 12 15 9 5 -3 9 3 9 12 0 10 3 15 6 11 4 -3 12
-1 20 6 44 40 45 40 60 21 26 -34 35 -54 29 -65 -4 -5 -2 -15 3 -22 6 -7 18
-32 28 -57 10 -25 20 -47 24 -50 11 -8 40 -89 40 -110 0 -11 9 -29 19 -39 12
-12 17 -27 14 -40 -3 -12 -1 -21 6 -21 7 0 9 -9 5 -25 -5 -19 -2 -25 10 -25 9
0 16 -7 16 -15 0 -8 5 -15 10 -15 6 0 8 -10 4 -24 -4 -17 2 -31 20 -51 14 -15
26 -38 26 -50 0 -12 11 -44 26 -70 14 -26 23 -54 20 -61 -3 -8 6 -35 19 -61
14 -27 26 -66 28 -88 1 -26 11 -50 25 -65 12 -13 36 -68 52 -121 17 -54 36
-100 43 -103 9 -5 9 -7 0 -12 -20 -9 -15 -31 12 -52 14 -11 25 -25 25 -31 0
-6 5 -11 11 -11 6 0 8 -8 4 -19 -3 -11 5 -39 20 -66 14 -27 25 -54 25 -61 0
-8 7 -14 15 -14 11 0 14 -7 9 -25 -4 -16 -2 -25 5 -25 7 0 9 -9 5 -24 -5 -22
16 -56 35 -56 5 0 8 -12 9 -27 1 -49 14 -93 27 -93 8 0 13 -12 12 -34 -1 -20
6 -41 17 -51 11 -12 15 -26 12 -41 -4 -13 -2 -24 3 -24 5 0 12 -12 16 -27 4
-16 22 -60 41 -99 19 -39 34 -74 34 -78 0 -4 7 -15 16 -23 8 -9 13 -25 11 -35
-3 -11 5 -41 19 -68 13 -26 27 -62 30 -80 4 -17 13 -34 21 -37 8 -3 11 -13 8
-24 -4 -11 2 -33 14 -53 12 -19 19 -41 15 -49 -3 -9 3 -25 14 -37 11 -12 22
-34 25 -48 14 -69 21 -88 34 -95 8 -5 11 -16 8 -28 -7 -22 23 -79 42 -79 7 0
13 -11 13 -25 0 -14 5 -25 10 -25 6 0 10 -10 10 -22 0 -28 22 -88 32 -88 5 0
6 -11 2 -24 -3 -14 0 -29 9 -38 8 -8 23 -41 33 -74 22 -71 23 -72 34 -54 14
23 24 3 12 -24 -13 -30 -5 -64 17 -71 12 -3 18 -16 18 -36 0 -17 4 -34 9 -37
17 -12 35 -64 29 -83 -4 -11 -2 -19 2 -19 13 0 34 -65 27 -83 -3 -10 2 -17 15
-22 12 -4 26 -24 36 -55 9 -28 21 -52 26 -56 5 -3 7 -13 5 -22 -3 -10 8 -44
24 -77 16 -33 30 -69 30 -80 0 -11 14 -47 30 -79 17 -32 30 -71 30 -86 0 -16
7 -30 15 -34 8 -3 15 -14 15 -25 0 -11 5 -23 10 -26 6 -3 10 -16 10 -28 0 -12
7 -31 15 -41 8 -11 12 -28 9 -39 -4 -12 3 -27 22 -44 18 -16 27 -35 27 -54 0
-16 3 -29 7 -29 10 0 31 -67 25 -82 -4 -9 1 -18 9 -21 9 -4 16 -15 16 -26 0
-11 14 -48 31 -81 17 -34 28 -68 25 -77 -4 -9 -3 -19 1 -22 16 -12 56 -98 50
-108 -10 -16 16 -73 36 -79 12 -4 16 -12 13 -21 -7 -18 14 -83 26 -83 4 0 8
-7 8 -15 0 -8 7 -15 15 -15 8 0 15 -7 15 -15 0 -9 -6 -12 -15 -9 -24 10 -17
-13 14 -45 25 -25 28 -36 26 -76 -3 -40 0 -48 16 -52 14 -4 17 -11 13 -29 -5
-18 -2 -24 9 -24 22 0 32 -20 16 -31 -11 -6 -10 -12 5 -28 12 -13 15 -27 11
-41 -5 -16 -2 -23 13 -27 21 -5 45 -68 45 -117 -1 -14 10 -35 23 -47 13 -12
24 -28 24 -34 0 -7 10 -25 22 -41 29 -37 1 -19 -32 20 -14 17 -38 44 -55 61
-16 18 -67 71 -113 119 -46 49 -86 86 -88 83 -5 -4 67 -84 176 -196 43 -45
208 -237 285 -331 20 -25 44 -54 53 -65 9 -11 30 -38 46 -60 16 -22 32 -42 36
-45 12 -9 166 -244 188 -286 12 -23 27 -48 34 -55 20 -21 93 -185 116 -259 44
-140 45 -155 38 -421 -6 -189 6 -271 52 -369 23 -49 65 -85 88 -76 8 3 25 1
38 -4 13 -5 27 -6 30 -3 3 3 19 7 36 8 41 4 170 47 170 57 0 5 3 7 8 4 4 -2
27 9 52 26 55 38 77 30 72 -28 -8 -83 -71 -183 -188 -299 l-81 -80 31 -47 c39
-57 88 -103 206 -193 50 -38 97 -74 103 -80 30 -25 125 -83 157 -95 19 -7 44
-21 55 -30 11 -9 36 -23 55 -30 60 -23 122 -63 178 -116 l53 -52 1 -88 c1
-103 -22 -178 -73 -235 -17 -19 -39 -45 -50 -59 -10 -14 -35 -45 -54 -70 -19
-25 -35 -51 -35 -57 0 -7 -4 -13 -10 -13 -5 0 -17 -14 -25 -30 -13 -24 -14
-38 -5 -68 27 -90 68 -127 179 -161 67 -20 70 -23 95 -73 37 -74 36 -151 -5
-260 -35 -96 -74 -162 -124 -207 -19 -17 -35 -36 -35 -41 0 -5 13 -16 29 -24
35 -18 120 -125 155 -195 35 -67 55 -149 57 -226 l2 -63 -57 -56 c-31 -31 -56
-59 -56 -63 1 -26 70 -69 70 -44 0 23 19 10 29 -20 14 -39 14 -42 1 -34 -11 7
-40 -18 -40 -34 0 -14 17 -14 22 0 7 20 37 -3 49 -39 7 -20 18 -43 26 -51 9
-8 12 -23 9 -37 -4 -13 -3 -24 2 -24 4 0 16 -24 26 -54 12 -34 26 -56 37 -59
15 -4 17 -13 14 -51 -4 -35 -1 -46 10 -46 18 0 38 -37 31 -56 -3 -8 6 -35 19
-60 16 -30 23 -55 19 -70 -5 -20 -2 -24 16 -24 18 0 21 -4 17 -22 -4 -13 2
-35 13 -52 10 -17 26 -58 35 -91 10 -33 31 -88 46 -121 17 -35 27 -69 23 -78
-5 -12 0 -19 15 -23 16 -4 19 -11 15 -28 -4 -16 1 -30 16 -45 14 -14 22 -35
23 -61 1 -29 10 -49 30 -72 20 -22 26 -38 22 -54 -3 -13 -2 -23 3 -23 5 0 21
-39 37 -87 16 -49 44 -122 64 -163 19 -41 36 -88 37 -105 1 -16 7 -31 13 -33
6 -2 11 -7 11 -12 0 -5 10 -30 22 -57 12 -26 22 -61 24 -76 1 -15 8 -33 16
-40 8 -7 20 -32 27 -57 7 -25 22 -60 33 -78 11 -18 21 -45 22 -60 2 -23 36
-108 67 -165 5 -10 7 -22 4 -27 -3 -5 1 -20 8 -32 8 -13 20 -40 27 -60 6 -21
16 -38 20 -38 5 0 9 -12 9 -27 -1 -41 12 -87 27 -99 19 -15 35 -61 28 -79 -4
-9 4 -25 20 -40 32 -30 32 -31 1 -39 -24 -6 -36 -36 -15 -36 6 0 10 5 10 11 0
6 6 9 14 6 8 -3 17 -1 19 6 2 7 8 8 13 4 4 -4 3 -17 -4 -27 -16 -26 -15 -40 3
-40 8 0 15 -6 15 -14 0 -8 5 -16 11 -18 6 -2 12 -18 13 -36 1 -18 6 -36 12
-40 6 -4 14 -18 17 -32 20 -83 36 -125 47 -125 7 0 15 -5 17 -12 3 -8 -3 -11
-16 -8 -14 2 -21 -1 -21 -11 0 -8 8 -14 18 -14 10 0 22 -4 28 -10 11 -11 74 8
74 22 0 4 6 8 13 8 8 0 24 9 37 20 13 11 34 23 47 26 13 4 23 10 23 16 0 5 5
6 10 3 6 -3 10 -2 10 2 0 5 12 14 28 21 29 13 84 44 92 52 15 15 71 50 80 50
5 0 10 5 10 12 0 6 3 9 6 5 3 -3 18 5 33 19 14 14 36 27 49 30 12 4 22 9 22
13 0 3 27 24 60 46 33 22 60 43 60 48 0 4 6 7 13 7 7 0 22 8 33 18 10 9 39 33
64 52 25 19 47 37 50 40 3 3 21 17 40 30 19 13 42 31 51 39 8 9 35 32 59 51
83 67 114 96 264 245 152 151 283 292 300 323 5 9 15 22 22 27 6 6 47 55 89
110 80 103 107 127 127 107 7 -7 7 -25 -3 -64 -7 -29 -12 -62 -11 -73 1 -11
-12 -59 -28 -106 -17 -48 -30 -96 -30 -107 0 -11 -4 -23 -8 -26 -5 -3 -26 -49
-47 -103 -21 -54 -46 -107 -55 -118 -9 -11 -22 -33 -29 -50 -7 -16 -23 -46
-35 -65 -13 -19 -37 -57 -54 -85 -18 -27 -40 -60 -49 -72 -10 -12 -29 -38 -43
-58 -25 -35 -103 -137 -128 -165 -7 -8 -22 -27 -35 -41 -112 -133 -348 -375
-452 -464 -32 -27 -69 -59 -81 -70 -49 -45 -131 -115 -159 -136 -17 -13 -32
-26 -35 -29 -3 -3 -33 -28 -67 -55 -35 -28 -63 -54 -63 -58 0 -5 -4 -6 -8 -3
-10 6 -52 -30 -52 -45 0 -6 -4 -8 -9 -5 -5 3 -20 -5 -35 -19 -15 -13 -27 -24
-29 -24 -1 0 -10 -3 -19 -6 -27 -10 -29 -33 -7 -73 29 -52 38 -60 49 -43 6 11
13 5 27 -25 10 -21 21 -41 24 -44 8 -8 27 -61 34 -98 4 -18 13 -36 21 -39 20
-7 17 -21 -6 -28 -23 -7 -27 -35 -5 -35 8 0 15 5 15 10 0 6 5 10 11 10 5 0 7
-5 3 -11 -3 -6 -2 -14 3 -18 6 -3 14 -19 20 -35 5 -17 15 -32 23 -34 9 -3 11
1 6 14 -6 15 -4 16 5 7 16 -16 49 5 41 26 -5 14 -3 14 11 3 18 -15 70 -4 115
24 12 8 22 11 22 7 0 -5 4 -3 8 3 4 5 30 18 57 29 28 10 52 21 55 24 3 3 21
14 40 25 19 10 54 29 78 42 23 12 42 19 42 16 0 -4 4 -2 8 3 4 6 36 25 72 44
36 19 100 56 143 83 43 26 83 48 88 48 5 0 9 5 9 10 0 6 5 10 10 10 10 0 80
43 107 65 29 24 42 33 126 90 48 32 95 66 105 74 9 9 35 29 57 46 47 35 70 53
100 80 13 11 42 36 66 55 86 70 357 335 449 439 19 22 53 60 75 84 22 24 49
56 59 71 11 14 30 38 43 52 13 14 20 30 17 36 -4 7 -10 4 -17 -7 -5 -9 -17
-25 -26 -35 -37 -41 -61 -72 -61 -81 0 -5 -5 -9 -11 -9 -6 0 -8 9 -4 20 4 14
2 20 -8 20 -17 0 -30 41 -21 64 3 9 1 16 -5 16 -6 0 -11 7 -11 15 0 8 -7 15
-16 15 -11 0 -15 6 -11 20 3 10 -1 25 -9 31 -8 7 -12 19 -9 28 3 10 -4 27 -16
40 -11 12 -18 29 -15 37 5 14 -20 93 -34 104 -7 6 -19 38 -46 123 -10 31 -22
57 -26 57 -4 0 -8 11 -8 24 0 14 -4 28 -10 31 -5 3 -10 20 -10 36 0 17 -7 37
-15 45 -8 9 -15 31 -15 51 0 26 -5 36 -20 40 -20 5 -25 19 -21 61 1 12 -2 22
-7 22 -5 0 -14 19 -21 43 -20 67 -30 87 -41 87 -5 0 -10 6 -10 14 0 8 -7 16
-15 20 -8 3 -15 10 -15 16 0 6 5 8 10 5 6 -3 10 -3 10 2 0 16 -35 99 -47 112
-8 7 -11 21 -8 31 3 10 -11 49 -34 94 -22 42 -38 82 -35 90 3 7 -2 16 -11 20
-22 8 -44 66 -38 99 4 19 -1 37 -14 55 -11 15 -23 45 -26 66 -3 22 -10 42 -15
45 -12 8 -32 68 -25 75 4 3 -1 6 -11 6 -13 0 -15 6 -10 25 5 19 2 25 -10 25
-19 0 -40 36 -32 56 3 9 -3 34 -14 57 -11 22 -20 51 -20 64 0 13 -13 49 -30
80 -16 31 -30 61 -30 68 0 7 -7 16 -16 19 -11 4 -14 14 -9 35 4 21 2 30 -9 34
-9 4 -16 11 -16 17 0 6 5 8 10 5 6 -3 10 -1 10 5 0 6 -7 13 -15 16 -8 4 -15
12 -15 20 0 7 -10 30 -21 51 -12 21 -23 58 -25 83 -2 27 -9 49 -20 57 -12 9
-15 20 -11 43 6 29 -7 43 -16 18 -6 -16 -50 78 -52 113 -3 35 -23 69 -40 69
-9 0 -15 10 -15 26 0 14 4 23 10 19 6 -3 10 1 10 9 0 9 -4 16 -10 16 -11 0
-44 69 -41 87 1 7 -7 31 -19 55 -11 23 -20 53 -20 66 0 16 -7 26 -21 29 -13 4
-18 11 -14 21 9 24 -14 79 -35 85 -20 5 -28 27 -10 27 6 0 10 9 10 19 0 11 -4
23 -10 26 -5 3 -10 1 -10 -4 0 -6 -5 -11 -11 -11 -7 0 -9 11 -6 30 4 16 3 32
-2 34 -5 3 -11 24 -15 46 -3 22 -11 40 -16 40 -6 0 -10 -5 -10 -11 0 -5 -4 -7
-10 -4 -5 3 -10 11 -10 16 0 6 4 8 9 4 16 -9 24 35 9 48 -8 7 -20 30 -27 52
-8 22 -22 58 -32 79 -11 22 -19 50 -19 63 0 13 -11 35 -25 49 -28 28 -33 46
-10 38 8 -4 15 -2 15 4 0 5 -7 12 -15 16 -8 3 -15 10 -15 16 0 6 -7 18 -15 26
-8 9 -15 26 -15 40 0 15 -6 24 -16 24 -12 0 -15 6 -10 23 6 25 -21 107 -37
107 -5 0 -7 9 -4 21 4 15 -2 29 -20 45 -17 16 -26 35 -27 61 -1 21 -10 50 -20
65 -10 15 -15 32 -11 37 3 6 -1 21 -8 33 -8 13 -22 48 -32 78 -25 81 -38 105
-60 108 -11 1 -26 15 -32 29 -15 32 -9 43 7 14 10 -20 12 -20 27 -6 14 15 14
18 -6 36 -11 11 -21 29 -21 40 0 22 -29 81 -42 87 -5 2 -8 10 -8 18 0 8 -4 14
-10 14 -5 0 -10 -4 -10 -10 0 -5 -4 -10 -10 -10 -16 0 -12 22 6 35 15 10 15
16 3 48 -12 34 -29 50 -29 27 0 -5 -4 -10 -10 -10 -5 0 -10 7 -10 15 0 8 5 15
10 15 6 0 10 7 10 15 0 8 -6 14 -12 13 -8 -2 -12 6 -10 20 2 12 -2 22 -8 22
-6 0 -9 8 -6 18 4 11 -6 44 -24 78 -16 32 -30 68 -30 79 -1 29 -37 105 -51
105 -8 0 -10 12 -6 36 5 32 4 34 -15 29 -17 -6 -19 -4 -13 15 12 37 -14 97
-46 111 -33 13 -40 34 -9 24 16 -5 20 -2 20 14 0 12 -5 21 -10 21 -6 0 -15 11
-20 25 -6 16 -14 23 -25 19 -17 -7 -20 9 -5 36 12 22 -7 79 -47 143 -13 21
-21 42 -18 47 5 8 -23 90 -35 100 -3 3 -11 17 -17 33 -7 15 -19 27 -28 27 -8
0 -15 7 -15 16 0 11 6 14 20 9 11 -4 20 -2 20 4 0 6 -4 11 -10 11 -5 0 -10 6
-10 14 0 8 -11 17 -25 20 -14 4 -25 13 -25 21 0 10 6 12 18 8 15 -6 15 -5 3
10 -7 9 -11 24 -7 32 3 9 2 13 -4 10 -6 -4 -13 8 -16 25 -4 17 -11 33 -15 36
-5 3 -9 20 -9 39 0 28 -3 32 -20 28 -14 -4 -20 0 -20 11 0 9 5 16 10 16 17 0
11 25 -11 51 -13 15 -18 31 -15 45 5 17 1 24 -14 29 -15 5 -20 15 -20 40 0 18
-5 35 -12 37 -6 2 -12 23 -13 47 0 23 -5 45 -11 49 -6 4 -16 23 -24 42 -8 19
-20 39 -27 43 -7 4 -13 17 -13 28 0 11 -7 22 -15 25 -8 4 -15 13 -15 21 0 8 5
11 10 8 6 -4 10 5 10 19 0 14 -4 26 -10 26 -5 0 -10 7 -10 15 0 8 -7 15 -15
15 -13 0 -15 7 -10 34 5 27 2 39 -13 54 -12 12 -18 28 -15 40 3 14 -2 21 -17
25 -16 4 -20 11 -16 25 4 13 1 22 -8 25 -11 4 -13 15 -9 41 4 29 2 36 -11 36
-9 0 -16 4 -16 9 0 5 -3 17 -7 27 -4 12 -3 15 5 10 24 -15 11 23 -15 46 -21
17 -28 33 -30 63 -1 22 -9 44 -18 51 -9 7 -13 18 -9 28 4 9 0 24 -8 34 -8 9
-21 33 -28 52 -8 19 -18 38 -23 41 -5 4 -12 27 -14 53 -3 25 -10 46 -14 46 -5
0 -9 6 -9 13 0 8 -11 19 -25 25 -26 12 -36 35 -10 26 11 -5 15 1 15 20 0 14
-4 26 -10 26 -16 0 -42 59 -35 80 4 11 2 20 -3 20 -5 0 -17 25 -27 55 -11 30
-22 55 -26 55 -12 0 -28 57 -22 79 3 12 1 21 -4 21 -5 0 -16 18 -23 40 -9 28
-21 42 -37 46 -13 4 -23 13 -23 21 0 13 3 13 15 3 12 -10 15 -10 15 4 0 9 -5
16 -11 16 -7 0 -9 11 -5 30 5 25 2 30 -15 30 -16 0 -19 4 -14 20 4 11 2 20 -4
20 -6 0 -11 -5 -11 -12 0 -9 -3 -9 -12 0 -10 10 -10 15 1 21 9 6 10 14 3 27
-5 11 -12 33 -15 50 -5 34 -27 74 -40 74 -5 0 -6 11 -3 25 8 33 -3 75 -20 75
-14 0 -19 17 -15 58 1 16 -4 22 -19 22 -15 0 -20 6 -19 23 4 49 -2 68 -25 78
-20 10 -23 17 -21 55 2 24 -1 44 -6 44 -5 0 -9 6 -9 14 0 7 -11 34 -24 59 -14
25 -22 54 -20 65 3 10 -1 25 -9 33 -8 8 -20 32 -26 52 -7 21 -19 41 -26 44 -8
2 -17 28 -21 59 -4 38 -12 59 -26 68 -11 8 -17 19 -13 25 11 19 -17 81 -37 81
-10 0 -18 7 -18 15 0 8 5 15 10 15 14 0 12 12 -6 35 -12 16 -16 17 -23 6 -7
-11 -11 -10 -20 7 -13 25 -14 43 -1 22 7 -11 12 -12 21 -3 9 9 9 19 -1 45 -8
18 -17 35 -20 38 -7 6 -34 70 -36 85 0 6 -2 18 -2 28 -1 9 -9 17 -18 17 -12 0
-15 6 -11 21 6 22 -24 89 -49 110 -18 15 -18 29 1 29 8 0 15 5 15 10 0 6 -4
10 -8 10 -12 0 -64 108 -58 119 8 12 -17 61 -31 61 -7 0 -13 -5 -13 -11 0 -8
-5 -8 -15 1 -19 16 -20 34 -1 27 8 -3 17 1 20 8 8 23 -14 74 -35 80 -21 7 -25
25 -8 42 15 15 2 51 -22 58 -13 5 -18 12 -15 22 7 16 -13 83 -24 83 -4 0 -13
19 -20 43 -36 120 -42 136 -52 139 -6 2 -11 18 -11 36 0 17 -6 33 -14 36 -7 3
-13 14 -13 24 0 35 -22 81 -41 87 -10 4 -19 13 -19 21 0 8 5 12 10 9 16 -10
11 17 -7 37 -15 17 -15 20 -3 28 12 7 12 12 2 22 -9 9 -12 9 -12 -1 0 -7 -5
-9 -10 -6 -6 4 -8 10 -5 15 7 12 -5 61 -14 56 -4 -3 -13 0 -21 5 -12 8 -12 12
-2 16 14 5 17 33 3 33 -5 0 -13 10 -17 23 -4 12 -11 25 -17 28 -5 4 -11 22
-12 40 -2 42 -15 89 -24 89 -7 0 -18 31 -37 98 -2 6 -13 12 -24 12 -12 0 -20
7 -20 16 0 14 3 14 15 4 12 -10 15 -9 15 4 0 9 -12 21 -27 27 -21 8 -24 12
-13 19 12 7 12 11 -1 26 -11 13 -11 18 -1 21 19 7 14 20 -9 26 -15 4 -20 11
-15 23 9 24 -14 82 -37 88 -14 3 -17 10 -12 26 4 13 1 35 -8 54 -9 17 -21 52
-28 79 -9 36 -17 49 -35 53 -13 3 -24 10 -24 16 0 5 4 7 9 3 12 -7 23 28 15
48 -3 9 -14 19 -24 22 -13 4 -18 15 -17 40 1 19 -6 42 -15 52 -9 10 -22 41
-29 68 -7 28 -19 57 -26 66 -7 8 -13 25 -13 36 0 12 -5 23 -12 25 -6 2 -11 18
-11 36 0 17 -4 29 -8 26 -8 -5 -25 42 -35 101 -7 39 -21 75 -33 85 -20 15 -51
85 -46 101 5 15 1 19 -19 19 -17 0 -26 5 -26 16 0 10 6 14 15 10 9 -3 15 0 15
9 0 8 -9 15 -20 15 -18 0 -20 4 -15 34 5 24 3 37 -7 42 -14 9 -62 145 -74 211
-4 18 -11 31 -18 30 -6 -1 -12 13 -14 32 -2 19 -10 40 -18 48 -8 8 -17 32 -20
54 -4 26 -15 46 -29 55 -12 8 -27 25 -33 39 -9 20 -18 24 -52 22 -22 -1 -40
-4 -40 -7 0 -3 -24 -5 -53 -5 -40 0 -51 3 -49 14 4 17 32 40 50 41 6 0 12 4
12 8 0 4 16 14 35 21 29 10 35 17 30 32 -4 11 -2 19 4 19 6 0 11 -4 11 -10 0
-5 4 -10 8 -10 15 0 7 46 -11 64 -25 26 -38 53 -31 69 3 8 -7 36 -21 62 -15
29 -23 56 -19 68 3 11 2 22 -3 26 -15 10 -63 112 -63 133 0 11 -8 22 -20 25
-11 3 -20 12 -20 20 0 8 4 12 8 9 4 -3 9 11 9 30 1 21 -4 34 -12 34 -7 0 -15
18 -19 40 -5 31 -11 41 -31 46 -14 3 -25 13 -25 21 0 8 5 11 10 8 17 -10 11
28 -10 68 -11 20 -20 46 -20 57 0 11 -10 30 -21 41 -17 17 -19 23 -8 30 11 6
11 11 1 21 -9 9 -12 9 -12 0 0 -7 -5 -12 -11 -12 -6 0 -8 7 -5 16 4 9 2 22 -3
28 -4 6 -11 28 -15 49 -4 20 -11 37 -15 37 -5 0 -11 16 -14 36 -8 48 -39 113
-54 114 -7 0 -13 7 -13 15 0 9 6 12 15 9 8 -4 15 -1 15 5 0 6 -4 11 -10 11
-18 0 -51 45 -46 63 7 27 -19 82 -40 82 -9 0 -19 6 -22 14 -3 10 0 12 12 8 9
-4 16 -2 16 3 0 5 -13 8 -30 7 -16 -1 -30 -6 -30 -11z m70 -84 c0 -15 -2 -15
-10 -2 -13 20 -13 33 0 25 6 -3 10 -14 10 -23z m80 -203 c0 -6 -4 -7 -10 -4
-5 3 -10 11 -10 16 0 6 5 7 10 4 6 -3 10 -11 10 -16z m405 -1199 c3 -5 2 -10
-4 -10 -5 0 -13 5 -16 10 -3 6 -2 10 4 10 5 0 13 -4 16 -10z m395 -846 c0 -8
-4 -12 -10 -9 -5 3 -10 10 -10 16 0 5 5 9 10 9 6 0 10 -7 10 -16z m240 -620
c0 -8 -4 -12 -10 -9 -5 3 -10 10 -10 16 0 5 5 9 10 9 6 0 10 -7 10 -16z m170
-465 c0 -6 -4 -7 -10 -4 -5 3 -10 11 -10 16 0 6 5 7 10 4 6 -3 10 -11 10 -16z
m-2183 -531 c-3 -8 -6 -5 -6 6 -1 11 2 17 5 13 3 -3 4 -12 1 -19z m2453 -115
c0 -5 -5 -15 -10 -23 -8 -12 -10 -11 -10 8 0 12 5 22 10 22 6 0 10 -3 10 -7z
m20 -78 c0 -8 -4 -15 -10 -15 -5 0 -10 7 -10 15 0 8 5 15 10 15 6 0 10 -7 10
-15z m40 -81 c0 -8 -4 -12 -10 -9 -5 3 -10 10 -10 16 0 5 5 9 10 9 6 0 10 -7
10 -16z m-2070 -814 c0 -5 -4 -10 -10 -10 -5 0 -10 5 -10 10 0 6 5 10 10 10 6
0 10 -4 10 -10z m0 -39 c0 -5 3 -18 6 -28 6 -16 5 -16 -9 2 -19 23 -21 35 -7
35 6 0 10 -4 10 -9z m628 -1543 c15 -15 16 -28 2 -28 -5 0 -10 6 -10 14 0 8
-6 17 -12 19 -7 3 -8 6 -2 6 5 1 15 -4 22 -11z m629 -1570 c-3 -8 -6 -5 -6 6
-1 11 2 17 5 13 3 -3 4 -12 1 -19z m62 -173 c0 -5 -6 -1 -14 9 -8 11 -15 24
-15 30 0 5 7 1 15 -10 8 -10 14 -23 14 -29z m2467 -362 c-10 -10 -19 5 -10 18
6 11 8 11 12 0 2 -7 1 -15 -2 -18z m124 -279 c0 -8 -4 -12 -10 -9 -5 3 -10 10
-10 16 0 5 5 9 10 9 6 0 10 -7 10 -16z m210 -525 c0 -5 -4 -9 -10 -9 -5 0 -10
7 -10 16 0 8 5 12 10 9 6 -3 10 -10 10 -16z m360 -975 c0 -8 -4 -12 -10 -9 -5
3 -10 10 -10 16 0 5 5 9 10 9 6 0 10 -7 10 -16z m-2085 -843 c-17 -34 -31 -45
-39 -32 -9 14 4 41 20 41 8 0 14 5 14 10 0 6 5 10 10 10 6 0 4 -13 -5 -29z
m2642 -563 c-3 -8 -6 -5 -6 6 -1 11 2 17 5 13 3 -3 4 -12 1 -19z m-2197 -429
c0 -5 -4 -9 -10 -9 -5 0 -10 7 -10 16 0 8 5 12 10 9 6 -3 10 -10 10 -16z m0
-70 c0 -5 -4 -9 -10 -9 -5 0 -10 7 -10 16 0 8 5 12 10 9 6 -3 10 -10 10 -16z
m2435 -110 c4 -6 5 -12 2 -15 -7 -7 -37 7 -37 17 0 13 27 11 35 -2z m-2255
-348 c0 -5 3 -18 6 -28 6 -16 5 -16 -9 2 -19 23 -21 35 -7 35 6 0 10 -4 10 -9z
m180 -451 c0 -5 -2 -10 -4 -10 -3 0 -8 5 -11 10 -3 6 -1 10 4 10 6 0 11 -4 11
-10z m260 -639 c0 -6 -4 -13 -10 -16 -5 -3 -10 1 -10 9 0 9 5 16 10 16 6 0 10
-4 10 -9z m30 -106 c0 -9 -6 -12 -15 -9 -8 4 -15 10 -15 15 0 5 7 9 15 9 8 0
15 -7 15 -15z m40 -125 c0 -5 -4 -10 -10 -10 -5 0 -10 5 -10 10 0 6 5 10 10
10 6 0 10 -4 10 -10z m2381 -33 c-8 -8 -11 -7 -11 4 0 9 3 19 7 23 4 4 9 2 11
-4 3 -7 -1 -17 -7 -23z m-27 -22 c-4 -8 -11 -15 -16 -15 -6 0 -5 6 2 15 7 8
14 15 16 15 2 0 1 -7 -2 -15z m-2304 -55 c0 -5 -4 -10 -10 -10 -5 0 -10 5 -10
10 0 6 5 10 10 10 6 0 10 -4 10 -10z m285 -829 c-3 -5 0 -21 7 -36 10 -22 9
-28 -6 -43 -17 -16 -18 -16 -7 6 14 26 6 44 -16 40 -25 -5 -26 18 -1 30 29 14
30 14 23 3z"/>
<path d="M7560 29132 c0 -6 -11 -13 -25 -16 -14 -4 -25 -11 -25 -16 0 -6 -7
-10 -17 -10 -9 0 -13 -3 -10 -6 8 -9 97 25 97 36 0 5 -4 12 -10 15 -5 3 -10 2
-10 -3z"/>
<path d="M7553 29085 c-3 -9 -3 -18 0 -21 9 -9 27 6 27 22 0 19 -19 18 -27 -1z"/>
<path d="M7420 29040 c0 -5 5 -10 10 -10 6 0 10 5 10 10 0 6 -4 10 -10 10 -5
0 -10 -4 -10 -10z"/>
<path d="M7390 29029 c0 -5 -4 -7 -10 -4 -5 3 -10 1 -10 -4 0 -6 -7 -11 -17
-11 -9 0 -13 -3 -10 -6 8 -9 67 16 67 27 0 5 -4 9 -10 9 -5 0 -10 -5 -10 -11z"/>
<path d="M7280 28959 c0 -5 5 -7 10 -4 6 3 10 8 10 11 0 2 -4 4 -10 4 -5 0
-10 -5 -10 -11z"/>
<path d="M7245 28940 c-3 -6 1 -7 9 -4 18 7 21 14 7 14 -6 0 -13 -4 -16 -10z"/>
<path d="M7661 28804 c-17 -19 -11 -25 17 -17 13 3 21 10 19 16 -5 17 -21 17
-36 1z"/>
<path d="M7690 28710 c0 -5 5 -10 10 -10 6 0 10 5 10 10 0 6 -4 10 -10 10 -5
0 -10 -4 -10 -10z"/>
<path d="M7573 28564 c-13 -11 -20 -24 -17 -27 8 -8 47 29 43 40 -2 4 -14 -1
-26 -13z"/>
<path d="M7525 28519 c-11 -16 -1 -19 13 -3 7 8 8 14 3 14 -5 0 -13 -5 -16
-11z"/>
<path d="M4320 28345 c-7 -9 -8 -15 -2 -15 5 0 12 7 16 15 3 8 4 15 2 15 -2 0
-9 -7 -16 -15z"/>
<path d="M4287 28313 c-4 -3 -7 -11 -7 -17 0 -6 5 -5 12 2 6 6 9 14 7 17 -3 3
-9 2 -12 -2z"/>
<path d="M16527 28279 c7 -7 15 -10 18 -7 3 3 -2 9 -12 12 -14 6 -15 5 -6 -5z"/>
<path d="M4246 28263 c-6 -14 -5 -15 5 -6 7 7 10 15 7 18 -3 3 -9 -2 -12 -12z"/>
<path d="M4220 28242 c0 -6 -7 -18 -16 -26 -8 -9 -11 -16 -5 -16 13 0 35 39
27 48 -3 3 -6 0 -6 -6z"/>
<path d="M4167 28183 c-10 -9 -9 -23 2 -23 5 0 11 7 15 15 5 15 -5 20 -17 8z"/>
<path d="M16700 28176 c0 -3 9 -10 20 -16 11 -6 20 -8 20 -6 0 3 -9 10 -20 16
-11 6 -20 8 -20 6z"/>
<path d="M4137 28154 c-4 -4 -7 -14 -7 -23 0 -11 3 -12 11 -4 6 6 10 16 7 23
-2 6 -7 8 -11 4z"/>
<path d="M16750 28135 c0 -3 14 -11 30 -20 17 -9 30 -11 30 -6 0 5 -13 14 -30
20 -16 5 -30 8 -30 6z"/>
<path d="M4094 28095 c-4 -14 -9 -24 -11 -21 -3 3 -23 -16 -45 -41 -22 -25
-45 -52 -51 -59 -7 -7 -21 -24 -32 -38 -11 -15 -24 -32 -30 -39 -5 -6 -22 -28
-36 -47 -15 -19 -37 -47 -50 -62 -13 -14 -32 -37 -42 -50 -68 -89 -158 -206
-171 -220 -9 -10 -16 -20 -16 -23 0 -3 -19 -31 -43 -62 -50 -67 -49 -66 -167
-243 -49 -74 -96 -142 -105 -151 -8 -9 -15 -19 -15 -22 0 -4 -28 -51 -62 -104
-33 -54 -72 -116 -86 -138 -14 -22 -33 -52 -43 -66 -10 -15 -25 -42 -34 -60
-9 -19 -36 -68 -60 -109 -24 -41 -54 -93 -65 -115 -12 -22 -39 -71 -59 -110
-78 -143 -230 -453 -261 -530 -13 -33 -33 -76 -45 -95 -12 -19 -38 -79 -59
-134 -20 -54 -56 -142 -81 -195 -57 -125 -215 -565 -254 -706 -17 -60 -46
-157 -66 -214 -19 -58 -35 -114 -35 -124 0 -11 -13 -63 -29 -116 -16 -53 -44
-159 -61 -236 -18 -77 -39 -160 -46 -184 -8 -25 -14 -57 -14 -72 0 -14 -6 -44
-14 -66 -8 -22 -14 -56 -14 -76 0 -20 -3 -41 -7 -47 -4 -6 -11 -36 -15 -68
-11 -67 -27 -165 -40 -242 -6 -30 -17 -102 -25 -160 -8 -58 -19 -134 -24 -170
-6 -36 -13 -99 -16 -140 -3 -41 -8 -93 -10 -115 -8 -67 -14 -135 -20 -235 -4
-52 -8 -117 -11 -145 -10 -120 -14 -789 -5 -776 5 8 9 56 9 108 -1 51 2 96 5
100 4 3 2 12 -5 20 -8 10 -8 17 0 25 7 7 12 20 12 31 0 10 4 16 9 13 11 -7 21
17 21 50 0 13 4 24 8 24 4 0 16 27 25 60 10 33 22 62 28 65 5 4 9 16 9 29 0
12 3 26 7 30 7 7 19 37 63 166 16 47 43 123 60 170 17 47 40 110 50 140 35
100 46 130 53 136 4 4 7 17 7 29 0 11 4 25 9 30 6 6 24 51 40 100 31 91 56
162 111 315 17 47 40 111 50 143 11 32 23 64 27 70 8 12 27 64 83 227 16 47
43 123 60 170 17 47 40 112 51 145 11 33 24 64 29 69 6 6 10 20 10 31 0 12 3
25 7 29 7 7 18 35 63 166 40 115 75 214 100 280 11 30 20 65 20 77 0 13 4 23
9 23 5 0 8 11 7 25 -2 13 1 22 5 19 5 -3 9 4 9 15 0 11 9 26 20 34 11 8 17 17
13 20 -3 4 -1 17 5 30 6 12 23 57 37 101 14 43 33 92 42 109 8 17 16 48 16 69
0 21 3 35 7 33 11 -7 22 24 14 37 -4 6 -1 13 5 17 12 8 37 68 72 175 10 33 24
65 30 73 7 7 9 26 5 44 -4 22 -2 29 6 27 13 -5 27 26 53 112 7 25 23 70 35
100 25 65 63 171 91 255 11 33 24 64 29 69 6 6 10 20 10 31 0 12 3 25 7 29 7
7 19 37 63 166 16 47 43 123 60 170 17 47 40 110 50 140 35 100 46 130 53 136
4 4 7 17 7 29 0 11 4 25 9 30 6 6 24 51 40 100 17 50 44 128 61 175 56 154 80
224 100 281 10 31 23 65 29 75 6 11 17 39 25 64 9 25 34 97 56 160 23 63 50
143 61 178 12 34 25 60 30 56 12 -7 11 33 -2 57 -8 16 -13 18 -25 8 -25 -21
-15 7 16 41 30 33 40 27 19 -12 -9 -16 -8 -23 2 -29 22 -14 28 -11 27 14 -4
63 3 96 27 121 14 15 25 34 25 42 0 8 5 12 10 9 6 -3 10 -2 10 3 0 5 10 21 23
35 55 63 67 80 67 93 0 23 -9 16 -16 -11z m-2352 -6247 c-7 -7 -12 -8 -12 -2
0 14 12 26 19 19 2 -3 -1 -11 -7 -17z m12 -52 c-6 -16 -24 -23 -24 -8 0 10 22
33 27 28 2 -2 1 -11 -3 -20z"/>
<path d="M16834 28075 c11 -8 27 -15 35 -15 13 1 12 4 -3 15 -11 8 -27 15 -35
15 -13 -1 -12 -4 3 -15z"/>
<path d="M7940 28060 c0 -5 5 -10 10 -10 6 0 10 5 10 10 0 6 -4 10 -10 10 -5
0 -10 -4 -10 -10z"/>
<path d="M16911 28018 c19 -18 50 -40 69 -49 19 -10 49 -29 65 -43 24 -20 26
-25 12 -26 -10 0 -29 12 -42 26 -24 26 -45 25 -45 -2 0 -8 5 -14 10 -14 6 0
10 -8 10 -18 0 -9 11 -34 25 -54 14 -20 25 -42 25 -49 0 -8 3 -9 13 0 15 12
27 5 27 -15 0 -6 -8 -11 -17 -10 -26 2 -29 -34 -4 -41 16 -4 20 -11 15 -25 -3
-11 3 -34 15 -54 12 -19 21 -48 21 -63 0 -20 6 -30 20 -34 20 -5 28 -27 10
-27 -17 0 -11 -20 8 -27 17 -7 41 -32 42 -44 0 -3 -11 -4 -25 -1 -14 2 -25 2
-25 -1 0 -11 31 -74 50 -102 11 -16 20 -40 20 -52 0 -28 16 -38 24 -16 5 13 9
14 19 3 9 -10 9 -13 0 -17 -23 -9 -15 -50 11 -57 18 -4 24 -12 23 -33 -1 -16
-6 -31 -12 -35 -6 -5 1 -17 18 -31 15 -14 27 -30 27 -36 0 -7 5 -9 10 -6 6 3
10 -3 10 -14 0 -15 -5 -19 -16 -14 -12 4 -15 0 -12 -18 2 -17 8 -23 22 -21 14
3 17 -1 12 -14 -7 -17 13 -84 25 -84 6 0 29 -53 29 -67 0 -2 -16 4 -36 12 -45
19 -50 19 -34 0 7 -8 19 -15 26 -15 8 0 14 -4 14 -10 0 -5 12 -16 28 -24 15
-8 47 -33 72 -56 25 -22 50 -45 57 -50 304 -243 687 -615 949 -921 49 -57 103
-122 119 -143 17 -22 45 -57 64 -80 105 -128 315 -425 445 -630 189 -298 427
-778 550 -1111 21 -55 46 -122 56 -150 20 -55 76 -234 114 -365 56 -197 127
-536 151 -730 4 -30 9 -64 11 -75 9 -42 33 -335 36 -422 2 -51 7 -93 11 -93 9
0 2 646 -7 745 -3 28 -8 91 -11 140 -11 165 -45 441 -81 641 -30 171 -33 190
-53 279 -141 653 -421 1375 -738 1902 -23 40 -43 75 -43 78 0 3 -8 18 -19 33
-10 15 -54 83 -97 152 -91 143 -246 364 -348 495 -62 79 -202 251 -216 265 -3
3 -20 23 -39 45 -166 196 -484 516 -691 695 -35 30 -70 62 -79 71 -9 8 -52 44
-96 79 -44 35 -87 70 -95 77 -8 7 -55 45 -105 83 -49 38 -97 76 -105 83 -8 8
-22 17 -30 21 -8 3 -33 20 -55 37 -22 16 -55 39 -72 51 -18 11 -33 24 -33 28
0 5 -10 12 -22 16 -12 3 -39 19 -61 35 -53 39 -67 37 -26 -3z m169 -179 c0 -5
-4 -9 -10 -9 -5 0 -10 7 -10 16 0 8 5 12 10 9 6 -3 10 -10 10 -16z m30 -95 c0
-8 -4 -12 -10 -9 -5 3 -10 10 -10 16 0 5 5 9 10 9 6 0 10 -7 10 -16z m36 -91
c-3 -8 -6 -17 -6 -19 0 -3 -4 -2 -10 1 -17 11 -12 45 6 38 8 -3 13 -12 10 -20z
m48 -259 c8 -21 8 -24 -3 -24 -5 0 -11 9 -14 20 -6 24 8 27 17 4z m146 -226
c0 -13 -23 -5 -28 10 -2 7 2 10 12 6 9 -3 16 -11 16 -16z m50 -143 c0 -8 -7
-15 -15 -15 -8 0 -15 7 -15 15 0 8 7 15 15 15 8 0 15 -7 15 -15z m-10 -71 c0
-8 -4 -12 -10 -9 -5 3 -10 10 -10 16 0 5 5 9 10 9 6 0 10 -7 10 -16z m50 -61
c0 -20 -18 -15 -31 8 -8 15 -8 19 0 15 6 -4 11 -1 11 6 0 17 20 -12 20 -29z
m36 -89 c-3 -8 0 -17 8 -20 14 -5 61 -64 51 -64 -3 0 -24 18 -46 40 -22 22
-44 40 -49 40 -5 0 -12 5 -16 12 -5 8 -2 9 10 5 13 -5 19 -1 23 14 5 19 7 19
15 5 5 -10 7 -24 4 -32z"/>
<path d="M7727 27993 c-10 -9 -9 -23 2 -23 5 0 11 7 15 15 5 15 -5 20 -17 8z"/>
<path d="M16950 27956 c0 -9 5 -16 10 -16 6 0 10 4 10 9 0 6 -4 13 -10 16 -5
3 -10 -1 -10 -9z"/>
<path d="M7980 27936 c0 -9 7 -16 16 -16 17 0 14 22 -4 28 -7 2 -12 -3 -12
-12z"/>
<path d="M10680 27940 c-8 -5 -10 -10 -5 -10 6 0 17 5 25 10 8 5 11 10 5 10
-5 0 -17 -5 -25 -10z"/>
<path d="M10618 27923 c-10 -2 -18 -8 -18 -13 0 -5 -8 -7 -17 -4 -14 5 -15 4
-4 -4 15 -11 51 -4 51 9 0 5 7 6 15 3 8 -4 15 -1 15 5 0 11 -11 12 -42 4z"/>
<path d="M10520 27880 c0 -5 5 -10 11 -10 5 0 7 5 4 10 -3 6 -8 10 -11 10 -2
0 -4 -4 -4 -10z"/>
<path d="M16990 27832 c0 -5 7 -17 16 -28 14 -17 15 -17 10 -1 -3 10 -6 23 -6
28 0 5 -4 9 -10 9 -5 0 -10 -4 -10 -8z"/>
<path d="M10775 27790 c3 -5 8 -10 11 -10 2 0 4 5 4 10 0 6 -5 10 -11 10 -5 0
-7 -4 -4 -10z"/>
<path d="M10680 27780 c0 -6 7 -10 15 -10 8 0 15 2 15 4 0 2 -7 6 -15 10 -8 3
-15 1 -15 -4z"/>
<path d="M10592 27768 c5 -15 28 -23 28 -10 0 5 -7 13 -16 16 -10 4 -14 1 -12
-6z"/>
<path d="M10635 27770 c3 -5 13 -10 21 -10 8 0 12 5 9 10 -3 6 -13 10 -21 10
-8 0 -12 -4 -9 -10z"/>
<path d="M10540 27762 c0 -5 9 -12 21 -15 13 -3 19 -1 16 6 -5 15 -37 22 -37
9z"/>
<path d="M17037 27059 c7 -7 15 -10 18 -7 3 3 -2 9 -12 12 -14 6 -15 5 -6 -5z"/>
<path d="M8350 27026 c0 -9 5 -16 10 -16 6 0 10 4 10 9 0 6 -4 13 -10 16 -5 3
-10 -1 -10 -9z"/>
<path d="M17090 27020 c8 -5 20 -10 25 -10 6 0 3 5 -5 10 -8 5 -19 10 -25 10
-5 0 -3 -5 5 -10z"/>
<path d="M17235 26920 c3 -5 13 -10 21 -10 8 0 12 5 9 10 -3 6 -13 10 -21 10
-8 0 -12 -4 -9 -10z"/>
<path d="M17280 26885 c7 -8 20 -15 29 -15 13 1 13 3 -3 15 -26 19 -42 19 -26
0z"/>
<path d="M8420 26849 c0 -8 7 -24 15 -35 11 -15 14 -16 15 -3 0 8 -7 24 -15
35 -11 15 -14 16 -15 3z"/>
<path d="M8390 26841 c0 -5 5 -13 10 -16 6 -3 10 -2 10 4 0 5 -4 13 -10 16 -5
3 -10 2 -10 -4z"/>
<path d="M3817 26623 c-4 -3 -7 -11 -7 -17 0 -6 5 -5 12 2 6 6 9 14 7 17 -3 3
-9 2 -12 -2z"/>
<path d="M8490 26615 c0 -8 5 -15 10 -15 6 0 10 7 10 15 0 8 -4 15 -10 15 -5
0 -10 -7 -10 -15z"/>
<path d="M3775 26559 c-4 -6 -5 -12 -2 -15 2 -3 7 2 10 11 7 17 1 20 -8 4z"/>
<path d="M3656 26365 c-9 -26 -7 -32 5 -12 6 10 9 21 6 23 -2 3 -7 -2 -11 -11z"/>
<path d="M3600 26269 c-6 -11 -10 -25 -7 -32 2 -6 9 3 15 21 12 36 8 42 -8 11z"/>
<path d="M3542 26171 c-6 -17 -7 -31 -3 -31 10 0 25 50 18 57 -3 2 -9 -10 -15
-26z"/>
<path d="M3478 26051 c-9 -22 -15 -41 -12 -41 8 0 35 62 32 72 -2 6 -11 -8
-20 -31z"/>
<path d="M3397 25895 c-9 -19 -13 -35 -9 -35 8 0 34 61 29 67 -2 1 -11 -13
-20 -32z"/>
<path d="M3337 25788 c-24 -57 -30 -81 -19 -74 12 7 44 97 38 104 -3 2 -11
-11 -19 -30z"/>
<path d="M3245 25597 c-15 -43 -26 -79 -23 -82 6 -6 60 135 55 148 -2 6 -16
-24 -32 -66z"/>
<path d="M3169 25444 c-41 -108 -68 -188 -64 -192 2 -3 9 8 15 24 6 16 24 64
41 108 17 43 28 81 25 83 -3 3 -10 -7 -17 -23z"/>
<path d="M9010 25341 c0 -6 5 -13 10 -16 6 -3 10 1 10 9 0 9 -4 16 -10 16 -5
0 -10 -4 -10 -9z"/>
<path d="M3026 25105 c-9 -26 -7 -32 5 -12 6 10 9 21 6 23 -2 3 -7 -2 -11 -11z"/>
<path d="M3000 25044 c-22 -57 -138 -381 -164 -458 -15 -43 -25 -80 -23 -82 5
-6 7 0 102 261 42 116 83 229 92 253 9 23 13 45 10 49 -4 3 -11 -7 -17 -23z"/>
<path d="M9150 24916 c0 -8 5 -18 10 -21 6 -3 10 1 10 9 0 8 -4 18 -10 21 -5
3 -10 -1 -10 -9z"/>
<path d="M18080 24800 c0 -5 5 -10 11 -10 5 0 7 5 4 10 -3 6 -8 10 -11 10 -2
0 -4 -4 -4 -10z"/>
<path d="M18126 24740 c15 -22 31 -40 36 -40 5 0 -2 14 -16 31 -14 17 -26 35
-26 40 0 5 -5 9 -10 9 -6 0 2 -18 16 -40z"/>
<path d="M18165 24680 c3 -5 8 -10 11 -10 2 0 4 5 4 10 0 6 -5 10 -11 10 -5 0
-7 -4 -4 -10z"/>
<path d="M18247 24560 c25 -39 48 -68 51 -65 6 6 -78 135 -88 135 -5 0 12 -32
37 -70z"/>
<path d="M20930 24589 c0 -8 7 -24 15 -35 18 -24 19 -7 0 26 -9 16 -14 19 -15
9z"/>
<path d="M9270 24581 c0 -6 5 -13 10 -16 6 -3 10 1 10 9 0 9 -4 16 -10 16 -5
0 -10 -4 -10 -9z"/>
<path d="M20955 24520 c-3 -5 -1 -10 4 -10 6 0 11 5 11 10 0 6 -2 10 -4 10 -3
0 -8 -4 -11 -10z"/>
<path d="M20960 24489 c0 -8 7 -24 15 -35 18 -24 19 -7 0 26 -9 16 -14 19 -15
9z"/>
<path d="M2796 24465 c-9 -26 -7 -32 5 -12 6 10 9 21 6 23 -2 3 -7 -2 -11 -11z"/>
<path d="M18314 24460 c3 -14 6 -33 6 -42 0 -10 6 -15 13 -13 12 5 55 -71 49
-89 -2 -5 0 -16 3 -25 5 -12 8 -13 14 -2 6 9 14 2 30 -24 22 -38 20 -64 -3
-33 -10 14 -12 11 -13 -20 -2 -49 7 -60 24 -31 14 24 14 24 9 -6 -5 -31 20
-115 35 -115 5 0 9 -7 9 -16 0 -9 -5 -12 -11 -8 -7 4 -10 1 -7 -7 2 -8 14 -18
26 -24 23 -10 26 -20 23 -72 -2 -18 2 -33 7 -33 16 0 70 -119 65 -140 -4 -14
0 -20 11 -20 12 0 15 -6 10 -24 -3 -13 -1 -27 5 -30 6 -4 11 -16 11 -27 0 -10
5 -19 10 -19 6 0 10 -6 10 -14 0 -8 6 -17 13 -19 9 -4 8 -8 -3 -16 -12 -8 -12
-13 -2 -23 6 -6 12 -20 12 -31 0 -14 5 -17 20 -12 14 5 20 2 20 -9 0 -9 7 -16
15 -16 8 0 15 -7 15 -16 0 -10 -6 -14 -14 -11 -19 8 -31 -25 -14 -38 27 -20
47 -59 42 -80 -4 -16 0 -24 14 -27 13 -4 20 -14 19 -29 -1 -13 3 -35 7 -48 6
-16 5 -21 -3 -17 -17 11 -13 -11 4 -26 40 -33 45 -41 40 -58 -3 -10 10 -46 30
-84 37 -70 41 -81 25 -71 -19 12 -10 -7 12 -25 12 -9 23 -28 24 -41 3 -40 16
-69 30 -69 16 0 18 -22 4 -36 -13 -13 4 -64 21 -64 12 0 38 -29 39 -42 0 -5
-4 -8 -10 -8 -5 0 -10 7 -10 15 0 8 -4 15 -10 15 -5 0 -10 -2 -10 -5 0 -8 24
-48 38 -63 6 -7 12 -19 12 -27 0 -7 5 -15 12 -17 7 -3 12 -21 11 -41 -1 -26 3
-37 14 -37 10 0 12 -6 8 -20 -3 -11 -2 -20 3 -20 6 0 13 -12 17 -27 3 -15 10
-30 14 -33 14 -10 41 -90 35 -105 -6 -15 29 -55 48 -55 4 0 8 -7 8 -15 0 -8
-4 -15 -9 -15 -5 0 -8 -15 -7 -32 1 -22 7 -34 19 -36 11 -2 19 -17 23 -44 4
-22 17 -52 30 -66 28 -29 32 -54 7 -45 -17 7 -17 3 9 -49 15 -32 38 -44 50
-26 4 7 8 9 9 3 1 -15 7 -46 14 -73 4 -15 2 -21 -5 -17 -5 3 -10 17 -10 31 0
15 -6 24 -15 24 -18 0 -20 -17 -4 -22 7 -2 13 -19 14 -38 2 -47 14 -70 31 -63
9 3 14 -3 15 -18 3 -44 5 -54 12 -84 4 -16 10 -46 13 -65 3 -19 7 -44 9 -55 2
-11 4 -28 4 -37 1 -10 6 -18 12 -18 7 0 9 9 5 23 -3 13 -8 46 -11 73 -3 27
-12 73 -20 103 -8 30 -12 58 -9 63 3 5 0 16 -7 24 -6 8 -9 17 -6 20 2 3 -1 29
-9 57 -7 29 -16 71 -19 95 -3 24 -15 78 -26 120 -11 42 -24 97 -29 122 -16 89
-124 470 -143 505 -5 11 -14 33 -18 50 -4 16 -26 82 -49 145 -23 63 -46 130
-51 148 -6 17 -27 69 -48 115 -21 45 -44 100 -51 122 -31 97 -204 457 -337
700 -125 229 -290 492 -279 445z m190 -322 c12 -25 15 -42 8 -54 -8 -15 -11
-14 -25 7 -13 18 -14 25 -4 31 9 6 9 10 -3 18 -8 5 -15 23 -16 40 -2 28 0 29
11 13 7 -10 20 -35 29 -55z m56 -103 c11 -13 10 -14 -4 -9 -9 3 -16 10 -16 15
0 13 6 11 20 -6z m20 -90 c0 -8 -4 -15 -10 -15 -5 0 -10 7 -10 15 0 8 5 15 10
15 6 0 10 -7 10 -15z m117 -299 c-2 -6 -9 -1 -16 12 -6 12 -9 28 -5 34 8 13
27 -28 21 -46z m31 -69 c2 -12 -1 -15 -12 -11 -19 7 -22 38 -3 32 6 -3 13 -12
15 -21z m149 -389 c-3 -8 -6 -5 -6 6 -1 11 2 17 5 13 3 -3 4 -12 1 -19z m33
-99 c0 -5 -7 -9 -15 -9 -15 0 -20 12 -9 23 8 8 24 -1 24 -14z m90 -235 c0 -8
-4 -12 -10 -9 -5 3 -10 10 -10 16 0 5 5 9 10 9 6 0 10 -7 10 -16z m120 -295
c0 -6 -4 -7 -10 -4 -5 3 -10 11 -10 16 0 6 5 7 10 4 6 -3 10 -11 10 -16z m130
-325 c0 -9 -5 -14 -12 -12 -18 6 -21 28 -4 28 9 0 16 -7 16 -16z m35 -74 c7
-24 7 -24 -9 -5 -8 11 -16 27 -16 35 0 20 16 1 25 -30z m-18 -52 c-3 -8 -6 -5
-6 6 -1 11 2 17 5 13 3 -3 4 -12 1 -19z m42 -42 c-1 -6 3 -24 10 -40 9 -23 9
-31 -1 -38 -20 -12 -28 -10 -28 8 0 8 5 12 10 9 14 -8 13 -1 -5 42 -19 45 -19
59 0 43 8 -7 14 -18 14 -24z m51 -232 c0 -8 -4 -12 -10 -9 -5 3 -10 10 -10 16
0 5 5 9 10 9 6 0 10 -7 10 -16z"/>
<path d="M20988 24424 c-4 -6 -1 -35 7 -64 15 -58 13 -74 -5 -41 -6 12 -15 21
-20 21 -13 0 -13 -37 1 -45 6 -4 7 -14 4 -24 -4 -9 -13 -36 -20 -61 -7 -25
-23 -70 -35 -100 -11 -30 -30 -82 -41 -115 -11 -33 -24 -64 -29 -69 -6 -6 -10
-20 -10 -32 0 -13 -4 -26 -10 -29 -5 -3 -10 -17 -10 -30 0 -13 -4 -26 -9 -29
-5 -3 -11 -16 -14 -28 -3 -13 -19 -61 -37 -108 -17 -47 -40 -110 -50 -140 -10
-30 -32 -93 -49 -139 -16 -46 -27 -90 -24 -99 5 -11 2 -14 -10 -9 -14 5 -16 0
-11 -41 5 -41 4 -45 -8 -27 -7 11 -18 36 -25 55 l-12 35 4 -35 c3 -19 11 -78
19 -130 9 -52 18 -117 21 -145 3 -27 7 -61 10 -75 5 -27 11 -71 21 -160 3 -30
7 -68 9 -85 12 -100 30 -323 44 -550 13 -196 4 -912 -13 -1104 -4 -36 -9 -95
-12 -131 -5 -64 -52 -486 -59 -525 -2 -11 -9 -54 -15 -95 -7 -41 -16 -95 -20
-120 -5 -25 -13 -72 -18 -105 -6 -33 -20 -105 -32 -160 -12 -55 -25 -120 -30
-145 -7 -46 -13 -71 -57 -245 -64 -255 -180 -652 -201 -689 -3 -5 -29 -77 -58
-160 -99 -283 -183 -504 -239 -626 -30 -67 -55 -123 -55 -126 0 -7 -117 -253
-135 -284 -8 -14 -24 -45 -35 -70 -11 -25 -25 -54 -32 -65 -7 -11 -30 -54 -51
-95 -37 -69 -68 -128 -124 -232 -12 -22 -29 -48 -37 -57 -8 -9 -21 -32 -30
-51 -24 -51 -90 -161 -172 -284 -10 -16 -28 -44 -39 -61 -11 -18 -32 -51 -47
-74 -16 -22 -39 -58 -53 -78 -14 -21 -45 -67 -70 -103 -25 -36 -53 -76 -62
-90 -9 -14 -34 -46 -55 -71 -21 -26 -38 -51 -38 -56 0 -5 -8 -16 -17 -25 -10
-9 -29 -32 -43 -52 -14 -20 -34 -47 -45 -61 -11 -13 -28 -35 -37 -47 -32 -42
-153 -193 -179 -223 -15 -16 -59 -68 -99 -115 -40 -47 -95 -110 -124 -141 -28
-31 -91 -100 -141 -154 -132 -143 -306 -315 -588 -577 -41 -38 -48 -50 -38
-61 9 -12 8 -16 -5 -21 -11 -4 -15 -2 -11 8 10 25 -4 25 -31 1 -15 -13 -42
-37 -61 -53 -22 -19 -30 -32 -22 -36 6 -4 11 -2 11 3 0 6 7 11 15 11 9 0 18 7
21 15 4 8 10 12 15 9 5 -3 3 -12 -5 -20 -8 -8 -26 -49 -40 -92 -14 -42 -39
-115 -56 -162 -53 -148 -80 -223 -101 -285 -11 -33 -24 -64 -29 -69 -6 -6 -10
-20 -10 -32 0 -13 -4 -26 -10 -29 -5 -3 -10 -15 -10 -26 0 -10 -4 -27 -9 -37
-26 -50 -45 -108 -45 -137 0 -19 -3 -32 -7 -30 -5 4 -21 -28 -50 -103 -5 -13
-9 -34 -9 -47 0 -13 -8 -28 -17 -34 -10 -5 -14 -13 -9 -18 5 -4 11 -2 13 5 3
6 8 10 13 7 4 -2 18 5 32 18 13 12 36 28 51 34 29 13 34 32 15 51 -7 7 -8 12
-4 12 5 0 15 -8 22 -17 11 -17 14 -16 38 10 14 15 26 25 26 21 0 -7 71 44 81
59 3 5 10 8 14 7 4 -1 18 8 31 19 14 12 48 38 77 59 29 20 54 39 57 42 3 3 25
21 50 40 25 19 47 37 50 40 3 3 21 17 40 30 19 13 42 31 51 39 8 9 35 32 59
51 24 19 54 45 67 57 13 11 42 36 65 55 69 55 94 78 259 228 103 93 505 495
579 579 30 34 71 79 90 100 20 21 54 60 75 86 22 25 45 52 52 59 6 7 35 41 64
76 29 36 62 73 72 85 31 35 43 49 73 90 16 21 36 47 44 56 8 9 23 27 33 40 10
13 39 52 65 85 26 34 54 72 62 84 8 12 26 37 40 55 14 19 49 67 78 107 29 40
57 78 62 85 6 7 15 24 22 38 6 14 15 25 19 25 5 0 16 14 25 32 9 17 20 36 25
42 6 6 39 56 74 111 36 55 70 107 75 115 10 14 23 34 80 130 12 19 36 60 55
90 19 30 44 74 55 97 11 23 25 45 30 48 5 3 20 29 34 58 14 28 43 84 66 122
22 39 54 97 70 130 17 33 37 71 45 85 8 14 26 50 41 80 15 30 32 66 39 80 7
14 41 86 75 160 34 74 86 187 116 250 30 64 54 119 54 123 0 11 86 226 119
300 41 89 113 293 150 424 17 61 48 155 67 210 20 54 44 135 55 181 10 45 21
86 23 91 8 12 87 317 102 391 7 36 17 78 23 93 6 16 11 40 11 54 0 15 6 49 14
77 8 28 26 116 41 196 14 80 30 168 35 195 10 53 11 59 36 230 16 107 18 122
28 215 2 25 9 81 15 125 6 44 13 112 16 150 14 193 25 361 31 465 7 145 8 777
0 862 -3 35 -8 115 -12 178 -3 63 -7 133 -10 155 -2 22 -8 87 -14 145 -18 199
-38 352 -80 630 -26 172 -104 556 -139 690 -11 41 -22 86 -25 100 -26 117 -63
256 -72 271 -4 7 -11 29 -15 48 -19 86 -25 105 -31 95z m51 -219 c0 -5 -6 -1
-14 9 -8 11 -15 14 -15 8 0 -7 -4 -12 -10 -12 -14 0 -13 18 3 34 10 12 14 10
24 -8 7 -11 12 -25 12 -31z m-29 -46 c0 -5 -7 -9 -15 -9 -8 0 -15 -5 -15 -12
0 -9 -3 -9 -11 -1 -8 8 -8 15 2 26 14 15 39 12 39 -4z m-322 -888 c3 -8 -1
-12 -9 -9 -7 2 -15 10 -17 17 -3 8 1 12 9 9 7 -2 15 -10 17 -17z m-8 -67 c0
-8 -4 -12 -10 -9 -5 3 -10 13 -10 21 0 8 5 12 10 9 6 -3 10 -13 10 -21z m-56
-58 c-3 -8 -1 -17 5 -21 13 -7 15 -25 4 -25 -11 0 -33 51 -27 62 8 13 24 -1
18 -16z m-2990 -8372 c10 -27 7 -56 -6 -52 -7 3 -14 19 -15 36 -3 33 10 43 21
16z m-66 -58 c-7 -8 -16 -12 -21 -9 -11 7 2 23 19 23 12 0 12 -2 2 -14z m12
-57 c0 -6 -4 -7 -10 -4 -5 3 -10 11 -10 16 0 6 5 7 10 4 6 -3 10 -11 10 -16z
m-300 -865 c0 -8 -7 -14 -15 -14 -8 0 -15 9 -15 20 0 13 5 18 15 14 8 -4 15
-12 15 -20z m-60 -64 c0 -5 -4 -10 -10 -10 -5 0 -10 5 -10 10 0 6 5 10 10 10
6 0 10 -4 10 -10z m20 -49 c0 -4 -12 -13 -26 -19 -26 -12 -26 -7 -1 25 9 13
27 9 27 -6z m-65 -41 c3 -5 1 -10 -4 -10 -6 0 -11 5 -11 10 0 6 2 10 4 10 3 0
8 -4 11 -10z"/>
<path d="M2731 24233 c-24 -71 -46 -135 -49 -143 -3 -10 -2 -12 5 -5 13 13 95
254 91 266 -2 5 -23 -48 -47 -118z"/>
<path d="M2660 23973 c-13 -37 -25 -75 -28 -83 -3 -10 -2 -12 6 -5 12 11 54
146 48 152 -2 2 -14 -26 -26 -64z"/>
<path d="M2627 23823 c-11 -18 -37 -117 -28 -108 12 13 43 106 37 112 -2 2 -6
1 -9 -4z"/>
<path d="M9592 23819 c2 -7 10 -15 17 -17 8 -3 12 1 9 9 -2 7 -10 15 -17 17
-8 3 -12 -1 -9 -9z"/>
<path d="M2581 23629 c-16 -53 -8 -61 9 -9 7 22 11 42 8 45 -3 3 -10 -13 -17
-36z"/>
<path d="M20532 23490 c0 -8 4 -26 8 -40 6 -20 8 -21 8 -5 0 11 -3 29 -8 40
-5 12 -8 14 -8 5z"/>
<path d="M2541 23453 c-1 -6 -4 -20 -7 -30 -5 -17 -5 -17 6 0 6 10 9 23 6 30
-3 9 -5 9 -5 0z"/>
<path d="M20559 23380 c-3 -8 -3 -28 1 -45 3 -19 8 -24 11 -15 3 8 3 29 -1 45
-3 19 -8 24 -11 15z"/>
<path d="M2520 23336 c-15 -41 -10 -56 6 -17 8 18 13 36 10 39 -3 2 -10 -7
-16 -22z"/>
<path d="M2505 23235 c-16 -49 -16 -51 0 -31 15 19 20 46 10 46 -3 0 -8 -7
-10 -15z"/>
<path d="M9840 23196 c0 -9 5 -16 10 -16 6 0 10 4 10 9 0 6 -4 13 -10 16 -5 3
-10 -1 -10 -9z"/>
<path d="M2491 23133 c-1 -6 -4 -20 -7 -30 -5 -17 -5 -17 6 0 6 10 9 23 6 30
-3 9 -5 9 -5 0z"/>
<path d="M9870 23096 c0 -9 5 -16 10 -16 6 0 10 4 10 9 0 6 -4 13 -10 16 -5 3
-10 -1 -10 -9z"/>
<path d="M12390 23050 c0 -5 5 -10 10 -10 6 0 10 5 10 10 0 6 -4 10 -10 10 -5
0 -10 -4 -10 -10z"/>
<path d="M9910 23016 c0 -9 5 -16 10 -16 6 0 10 4 10 9 0 6 -4 13 -10 16 -5 3
-10 -1 -10 -9z"/>
<path d="M9771 22924 c0 -11 3 -14 6 -6 3 7 2 16 -1 19 -3 4 -6 -2 -5 -13z"/>
<path d="M2451 22884 c0 -11 3 -14 6 -6 3 7 2 16 -1 19 -3 4 -6 -2 -5 -13z"/>
<path d="M9771 22890 c0 -8 4 -24 9 -35 5 -13 9 -14 9 -5 0 8 -4 24 -9 35 -5
13 -9 14 -9 5z"/>
<path d="M2441 22804 c0 -11 3 -14 6 -6 3 7 2 16 -1 19 -3 4 -6 -2 -5 -13z"/>
<path d="M9802 22775 c0 -11 3 -29 8 -40 11 -25 11 1 0 35 -6 20 -8 21 -8 5z"/>
<path d="M9817 22703 c-4 -3 -7 -11 -7 -17 0 -6 5 -5 12 2 6 6 9 14 7 17 -3 3
-9 2 -12 -2z"/>
<path d="M9832 22620 c0 -8 4 -26 8 -40 6 -20 8 -21 8 -5 0 11 -3 29 -8 40 -5
12 -8 14 -8 5z"/>
<path d="M9847 22543 c-4 -3 -7 -11 -7 -17 0 -6 5 -5 12 2 6 6 9 14 7 17 -3 3
-9 2 -12 -2z"/>
<path d="M9851 22494 c0 -11 3 -14 6 -6 3 7 2 16 -1 19 -3 4 -6 -2 -5 -13z"/>
<path d="M9872 22410 c0 -14 2 -19 5 -12 2 6 2 18 0 25 -3 6 -5 1 -5 -13z"/>
<path d="M9870 22369 c0 -5 5 -7 10 -4 6 3 10 8 10 11 0 2 -4 4 -10 4 -5 0
-10 -5 -10 -11z"/>
<path d="M9911 22144 c0 -11 3 -14 6 -6 3 7 2 16 -1 19 -3 4 -6 -2 -5 -13z"/>
<path d="M9915 22109 c-4 -6 -5 -12 -2 -15 2 -3 7 2 10 11 7 17 1 20 -8 4z"/>
<path d="M9921 22064 c0 -11 3 -14 6 -6 3 7 2 16 -1 19 -3 4 -6 -2 -5 -13z"/>
<path d="M9931 21964 c0 -11 3 -14 6 -6 3 7 2 16 -1 19 -3 4 -6 -2 -5 -13z"/>
<path d="M9951 21774 c0 -11 3 -14 6 -6 3 7 2 16 -1 19 -3 4 -6 -2 -5 -13z"/>
<path d="M3311 21674 c0 -11 3 -14 6 -6 3 7 2 16 -1 19 -3 4 -6 -2 -5 -13z"/>
<path d="M3331 21584 c0 -11 3 -14 6 -6 3 7 2 16 -1 19 -3 4 -6 -2 -5 -13z"/>
<path d="M19421 21494 c0 -11 3 -14 6 -6 3 7 2 16 -1 19 -3 4 -6 -2 -5 -13z"/>
<path d="M19424 21437 c3 -10 9 -36 12 -58 4 -22 9 -41 13 -43 13 -8 -2 80
-16 99 -14 17 -15 18 -9 2z"/>
<path d="M1710 21419 c0 -11 5 -17 10 -14 6 3 10 13 10 21 0 8 -4 14 -10 14
-5 0 -10 -9 -10 -21z"/>
<path d="M1721 21374 c0 -11 3 -14 6 -6 3 7 2 16 -1 19 -3 4 -6 -2 -5 -13z"/>
<path d="M19452 21270 c0 -14 2 -19 5 -12 2 6 2 18 0 25 -3 6 -5 1 -5 -13z"/>
<path d="M1721 21254 c0 -11 3 -14 6 -6 3 7 2 16 -1 19 -3 4 -6 -2 -5 -13z"/>
<path d="M19456 21231 c-4 -7 -5 -15 -2 -18 9 -9 19 4 14 18 -4 11 -6 11 -12
0z"/>
<path d="M19461 21174 c0 -11 3 -14 6 -6 3 7 2 16 -1 19 -3 4 -6 -2 -5 -13z"/>
<path d="M3451 21134 c0 -11 3 -14 6 -6 3 7 2 16 -1 19 -3 4 -6 -2 -5 -13z"/>
<path d="M19471 21074 c0 -11 3 -14 6 -6 3 7 2 16 -1 19 -3 4 -6 -2 -5 -13z"/>
<path d="M19475 21029 c-4 -6 -5 -12 -2 -15 2 -3 7 2 10 11 7 17 1 20 -8 4z"/>
<path d="M19481 20984 c0 -11 3 -14 6 -6 3 7 2 16 -1 19 -3 4 -6 -2 -5 -13z"/>
<path d="M3556 20857 c3 -10 9 -15 12 -12 3 3 0 11 -7 18 -10 9 -11 8 -5 -6z"/>
<path d="M13520 20141 c0 -5 5 -13 10 -16 6 -3 10 -2 10 4 0 5 -4 13 -10 16
-5 3 -10 2 -10 -4z"/>
<path d="M3351 19853 c-1 -6 13 -65 29 -130 141 -547 354 -988 671 -1389 85
-109 304 -337 392 -409 27 -22 67 -57 90 -77 23 -21 48 -38 55 -38 7 0 15 -7
18 -15 3 -8 14 -17 24 -20 10 -3 35 -19 55 -35 21 -17 43 -30 49 -30 12 0 -44
51 -96 88 -76 53 -77 54 -41 48 36 -6 55 11 31 28 -8 6 -21 28 -28 49 -13 35
-30 50 -30 26 0 -5 -4 -7 -10 -4 -5 3 -10 11 -10 16 0 6 5 7 10 4 19 -12 10
25 -10 42 -24 20 -26 38 -5 29 8 -3 15 -1 15 5 0 20 -21 49 -35 49 -14 0 -20
16 -17 51 1 9 -10 29 -23 43 -20 22 -23 31 -15 46 12 22 -6 60 -28 60 -14 0
-35 47 -27 60 3 5 0 21 -5 36 -8 20 -8 29 1 35 6 4 8 12 4 19 -6 9 -10 9 -16
-1 -13 -20 -31 9 -24 37 3 14 -6 32 -26 55 l-30 34 23 6 c22 6 22 7 -7 20 -17
8 -37 20 -45 27 -8 7 -32 25 -53 41 -165 127 -397 365 -512 526 -11 15 -29 39
-41 54 -79 98 -236 380 -295 531 -21 52 -38 90 -38 83z m1209 -1984 c0 -4 -7
-6 -15 -3 -8 4 -15 10 -15 15 0 4 7 6 15 3 8 -4 15 -10 15 -15z"/>
<path d="M4354 18551 c8 -12 66 -32 66 -22 0 8 -44 31 -61 31 -6 0 -8 -4 -5
-9z"/>
<path d="M4444 18495 c11 -8 27 -15 35 -15 13 1 12 4 -3 15 -11 8 -27 15 -35
15 -13 -1 -12 -4 3 -15z"/>
<path d="M4730 18350 c8 -5 20 -10 25 -10 6 0 3 5 -5 10 -8 5 -19 10 -25 10
-5 0 -3 -5 5 -10z"/>
<path d="M11839 17783 c-25 -66 -37 -153 -21 -153 6 0 10 19 10 43 -1 27 9 65
25 100 14 31 22 59 17 62 -5 3 -18 -21 -31 -52z"/>
<path d="M11910 17756 c0 -8 5 -18 10 -21 6 -3 10 1 10 9 0 8 -4 18 -10 21 -5
3 -10 -1 -10 -9z"/>
<path d="M4760 17685 c7 -8 20 -15 29 -15 13 1 13 3 -3 15 -26 19 -42 19 -26
0z"/>
<path d="M4821 17646 c2 -2 15 -9 29 -15 24 -11 24 -11 6 3 -16 13 -49 24 -35
12z"/>
<path d="M11830 17579 c0 -11 4 -18 10 -14 5 3 7 12 3 20 -7 21 -13 19 -13 -6z"/>
<path d="M11852 17500 c0 -14 2 -19 5 -12 2 6 2 18 0 25 -3 6 -5 1 -5 -13z"/>
<path d="M11861 17454 c0 -11 3 -14 6 -6 3 7 2 16 -1 19 -3 4 -6 -2 -5 -13z"/>
<path d="M11860 17400 c0 -11 2 -20 4 -20 2 0 6 9 9 20 3 11 1 20 -4 20 -5 0
-9 -9 -9 -20z"/>
<path d="M11837 17280 c-16 -45 -26 -84 -23 -87 3 -3 8 0 10 8 3 8 15 40 26
72 12 31 20 64 18 72 -2 9 -16 -21 -31 -65z"/>
<path d="M12150 17240 c0 -5 5 -10 10 -10 6 0 10 5 10 10 0 6 -4 10 -10 10 -5
0 -10 -4 -10 -10z"/>
<path d="M12230 17036 c0 -9 5 -16 10 -16 6 0 10 4 10 9 0 6 -4 13 -10 16 -5
3 -10 -1 -10 -9z"/>
<path d="M12240 16946 c0 -9 5 -16 10 -16 6 0 10 4 10 9 0 6 -4 13 -10 16 -5
3 -10 -1 -10 -9z"/>
<path d="M12262 16888 c6 -18 28 -21 28 -4 0 9 -7 16 -16 16 -9 0 -14 -5 -12
-12z"/>
<path d="M12700 15821 c0 -6 5 -13 10 -16 6 -3 10 1 10 9 0 9 -4 16 -10 16 -5
0 -10 -4 -10 -9z"/>
<path d="M12820 15453 c0 -4 5 -15 10 -23 8 -13 10 -13 10 2 0 9 -4 20 -10 23
-5 3 -10 3 -10 -2z"/>
<path d="M12850 15364 c0 -8 2 -14 4 -14 2 0 11 -3 20 -6 10 -4 16 -1 16 9 0
8 -9 17 -20 20 -13 3 -20 0 -20 -9z"/>
<path d="M15755 15339 c-4 -6 -5 -12 -2 -15 2 -3 7 2 10 11 7 17 1 20 -8 4z"/>
<path d="M15665 15219 c-4 -6 -5 -12 -2 -15 2 -3 7 2 10 11 7 17 1 20 -8 4z"/>
<path d="M12921 15164 c0 -11 3 -14 6 -6 3 7 2 16 -1 19 -3 4 -6 -2 -5 -13z"/>
<path d="M15627 15173 c-4 -3 -7 -11 -7 -17 0 -6 5 -5 12 2 6 6 9 14 7 17 -3
3 -9 2 -12 -2z"/>
<path d="M12950 15131 c0 -6 5 -13 10 -16 6 -3 10 1 10 9 0 9 -4 16 -10 16 -5
0 -10 -4 -10 -9z"/>
<path d="M13150 14691 c0 -5 5 -13 10 -16 6 -3 10 -2 10 4 0 5 -4 13 -10 16
-5 3 -10 2 -10 -4z"/>
<path d="M13125 14670 c3 -5 8 -10 11 -10 2 0 4 5 4 10 0 6 -5 10 -11 10 -5 0
-7 -4 -4 -10z"/>
<path d="M13098 14663 c-1 -5 -29 -21 -60 -38 -54 -27 -72 -45 -48 -45 6 0 10
4 10 8 0 5 18 15 40 22 22 7 40 16 40 20 0 4 10 11 22 17 14 6 18 12 11 16 -6
4 -13 4 -15 0z"/>
<path d="M17436 14654 c-9 -23 -2 -28 13 -10 7 8 8 17 3 20 -6 3 -13 -1 -16
-10z"/>
<path d="M17390 14615 c-13 -14 -18 -25 -12 -25 7 0 12 5 12 11 0 5 4 8 9 5 5
-3 12 1 15 10 10 26 1 26 -24 -1z"/>
<path d="M17317 14556 c-20 -17 -37 -35 -37 -39 0 -4 6 -3 13 3 6 6 25 21 42
35 16 13 27 26 24 29 -2 3 -21 -10 -42 -28z"/>
<path d="M12905 14550 c3 -5 8 -10 11 -10 2 0 4 5 4 10 0 6 -5 10 -11 10 -5 0
-7 -4 -4 -10z"/>
<path d="M29425 14544 c-43 -22 -85 -65 -85 -86 0 -9 8 -22 19 -27 39 -21 35
-107 -15 -277 -25 -87 -95 -275 -113 -303 -6 -10 -40 20 -132 114 -226 233
-359 319 -454 294 -24 -7 -34 -4 -56 17 -34 33 -69 26 -69 -14 -1 -39 -32
-102 -70 -140 -42 -43 -76 -59 -421 -208 -398 -171 -402 -173 -407 -289 -5
-98 9 -103 109 -39 84 55 281 147 290 136 4 -4 54 -232 113 -507 59 -275 112
-512 118 -528 22 -57 82 -46 169 32 l53 47 -22 32 c-17 24 -47 146 -127 523
-58 270 -104 493 -103 494 2 1 41 19 88 39 163 71 275 152 295 215 9 30 21 27
105 -25 122 -75 265 -206 361 -330 40 -52 42 -58 101 -331 35 -164 66 -285 75
-295 9 -10 26 -18 38 -18 26 0 100 47 139 88 l28 31 -20 33 c-13 20 -40 124
-71 270 l-51 237 59 118 c98 196 176 426 187 553 8 77 -11 130 -52 149 -33 15
-43 14 -79 -5z"/>
<path d="M17245 14499 c-11 -17 1 -21 15 -4 8 9 8 15 2 15 -6 0 -14 -5 -17
-11z"/>
<path d="M16166 14393 c-6 -14 -5 -15 5 -6 7 7 10 15 7 18 -3 3 -9 -2 -12 -12z"/>
<path d="M16125 14350 c-3 -5 -1 -10 4 -10 6 0 11 5 11 10 0 6 -2 10 -4 10 -3
0 -8 -4 -11 -10z"/>
<path d="M6150 14256 c0 -2 7 -7 16 -10 8 -3 12 -2 9 4 -6 10 -25 14 -25 6z"/>
<path d="M6200 14216 c0 -2 7 -7 16 -10 8 -3 12 -2 9 4 -6 10 -25 14 -25 6z"/>
<path d="M6352 14114 c10 -10 20 -15 24 -12 3 4 -5 12 -18 18 -22 12 -22 12
-6 -6z"/>
<path d="M6390 14084 c0 -2 15 -11 33 -20 27 -14 30 -15 19 -2 -11 14 -52 31
-52 22z"/>
<path d="M13320 14048 c0 -6 -3 -9 -6 -5 -3 3 -15 -3 -27 -13 -12 -10 -33 -28
-46 -39 -13 -12 -28 -21 -33 -21 -5 0 -6 -4 -3 -10 4 -6 15 -2 27 9 11 11 40
32 64 47 42 27 55 44 34 44 -5 0 -10 -5 -10 -12z"/>
<path d="M6474 14027 c10 -7 30 -22 43 -33 13 -12 37 -27 53 -34 17 -7 30 -16
30 -20 0 -4 18 -15 40 -25 42 -19 55 -41 18 -30 -39 12 -42 11 -46 -15 -2 -14
-8 -29 -13 -34 -5 -6 -9 -19 -9 -31 0 -12 -4 -25 -9 -30 -9 -9 -27 -59 -87
-235 -40 -120 -45 -129 -60 -123 -9 3 -14 -2 -14 -17 0 -11 -4 -19 -9 -15 -5
3 -13 0 -17 -6 -6 -11 8 -26 81 -86 29 -24 29 -24 5 -17 -14 4 -37 17 -52 30
-15 12 -41 25 -58 29 -16 4 -30 12 -30 19 0 12 -89 50 -98 41 -3 -3 12 -12 34
-21 21 -9 50 -25 64 -36 44 -34 134 -88 147 -88 7 0 13 -5 13 -11 0 -5 20 -19
44 -30 25 -10 46 -23 48 -28 2 -4 26 -20 53 -33 98 -50 168 -88 183 -101 14
-11 33 -22 177 -96 33 -17 67 -35 75 -40 8 -5 67 -34 130 -64 63 -30 162 -77
220 -105 58 -28 134 -62 170 -75 36 -14 90 -38 120 -54 30 -16 70 -34 87 -41
31 -10 32 -13 23 -38 -6 -15 -19 -63 -29 -108 -32 -137 -160 -708 -172 -766
-6 -30 -15 -66 -19 -80 -8 -23 -38 -146 -60 -245 -5 -22 -16 -69 -24 -105 -9
-36 -41 -180 -71 -320 -31 -140 -70 -307 -86 -370 -63 -235 -97 -413 -140
-735 -61 -458 -93 -1043 -70 -1300 23 -253 44 -389 78 -495 23 -74 126 -276
138 -272 12 3 9 138 -6 236 -18 125 17 219 86 232 49 9 81 -15 113 -84 51
-112 69 -259 81 -686 11 -335 24 -493 51 -588 11 -39 42 -68 72 -68 28 0 111
-92 136 -151 74 -171 94 -198 170 -229 25 -10 39 -10 58 -1 14 6 32 11 40 11
27 0 176 76 312 159 207 126 559 302 836 416 50 20 115 45 145 55 61 19 129
45 176 65 17 7 66 28 110 45 44 18 98 40 120 50 22 10 74 32 115 50 124 53
333 146 483 214 28 13 75 34 102 46 48 22 316 144 459 209 38 18 101 47 140
65 39 19 124 59 190 90 65 31 120 56 121 56 2 0 56 25 121 56 66 31 151 71
189 89 39 18 293 143 565 278 581 287 1019 502 1145 562 50 23 206 99 348 169
143 69 260 126 262 126 17 0 607 293 759 377 43 23 80 43 82 43 6 0 394 226
457 267 38 24 110 74 160 112 302 224 584 410 902 596 225 132 384 253 450
344 122 166 95 258 -90 307 -27 8 -72 14 -98 14 -150 0 -230 63 -204 160 32
120 17 150 -73 150 -62 0 -151 -24 -246 -66 -74 -32 -220 -128 -228 -150 -8
-21 13 -37 73 -53 25 -7 56 -17 69 -22 13 -5 36 -9 52 -9 16 0 52 -5 82 -12
108 -24 100 -43 -45 -103 -62 -26 -126 -53 -142 -60 -93 -42 -171 -58 -234
-49 -55 8 -121 69 -121 112 0 35 -37 100 -73 126 -39 28 -129 29 -177 0 -49
-29 -95 -92 -120 -170 -47 -141 -158 -208 -285 -173 -103 29 -338 -54 -535
-190 -135 -92 -348 -177 -496 -196 -94 -13 -244 22 -244 57 0 30 190 170 407
299 79 46 143 87 143 92 0 4 -12 7 -27 7 -109 0 -354 38 -383 60 -46 35 6 100
146 182 60 35 397 204 479 240 91 40 165 74 215 96 25 11 81 35 125 52 44 17
98 40 120 49 45 20 317 127 440 173 44 16 89 34 100 38 43 17 110 41 198 71
328 111 562 231 605 311 52 95 119 134 268 154 93 13 276 56 469 109 80 22
107 30 195 54 123 33 636 186 740 221 30 10 129 41 220 70 200 63 558 182 620
205 25 9 70 26 100 37 30 11 64 24 75 28 11 4 36 14 55 21 19 7 63 25 98 41
34 15 65 28 68 28 3 0 61 28 129 61 136 68 247 146 282 198 28 41 31 112 7
171 -26 65 -69 75 -172 41 -31 -11 -102 -31 -157 -46 -198 -53 -291 -77 -325
-85 -19 -5 -70 -18 -112 -29 -106 -28 -276 -73 -718 -187 -74 -20 -159 -42
-187 -50 -29 -8 -77 -20 -105 -28 -142 -39 -215 -59 -270 -75 -18 -6 -49 -14
-68 -19 -111 -31 -563 -166 -650 -195 -25 -8 -92 -29 -150 -47 -137 -42 -1081
-356 -1230 -410 -63 -23 -164 -59 -225 -80 -103 -35 -149 -52 -282 -101 -29
-10 -78 -28 -108 -39 -142 -51 -171 -63 -190 -70 -11 -5 -155 -59 -320 -121
-250 -93 -380 -142 -600 -229 -216 -85 -1302 -518 -1335 -532 -73 -33 -101
-44 -190 -81 -239 -98 -439 -181 -476 -197 -22 -11 -65 -29 -95 -40 -29 -12
-77 -32 -107 -46 -29 -13 -55 -24 -57 -24 -3 0 -24 -9 -48 -19 -23 -11 -139
-61 -257 -112 -118 -50 -239 -102 -268 -115 -29 -13 -55 -24 -57 -24 -2 0 -28
-11 -57 -24 -80 -36 -136 -60 -218 -96 -41 -18 -109 -47 -150 -65 -41 -18
-129 -56 -195 -85 -66 -29 -147 -65 -180 -80 -247 -115 -484 -203 -650 -241
-33 -8 -107 -14 -165 -14 -119 0 -146 11 -175 72 -16 33 -16 41 5 158 26 151
104 468 191 775 16 58 34 121 39 140 25 87 154 532 172 590 11 36 23 79 28 95
4 17 11 38 15 47 8 21 -23 36 -89 43 -22 2 -57 9 -76 16 -19 6 -54 13 -76 15
l-41 4 -26 -73 c-14 -39 -35 -103 -47 -142 -12 -38 -35 -108 -50 -155 -94
-285 -208 -697 -249 -905 -66 -329 -155 -592 -262 -782 -95 -167 -167 -200
-188 -86 -16 83 12 282 80 573 35 147 79 334 89 370 5 19 16 62 24 95 16 70
116 456 152 595 44 167 99 372 121 450 8 30 18 69 23 85 4 17 9 36 11 44 3 9
-33 25 -126 53 -71 22 -150 51 -175 65 -25 14 -58 33 -75 41 -16 9 -24 17 -18
19 7 3 21 0 32 -6 28 -15 31 -14 31 12 0 12 9 47 20 77 29 75 65 180 95 270
14 41 30 83 36 94 6 10 17 38 24 62 12 40 11 44 -6 49 -10 4 -19 11 -19 17 0
5 6 8 13 5 48 -18 181 -57 184 -53 5 5 -57 29 -482 182 -192 69 -385 141 -430
159 -157 65 -341 146 -420 184 -44 22 -100 49 -125 61 -25 11 -56 27 -70 34
-25 14 -222 114 -335 170 -33 16 -62 33 -65 37 -3 4 -23 16 -45 27 -45 20 -72
36 -183 104 -42 27 -93 56 -112 65 -19 10 -42 26 -52 35 -10 10 -29 20 -43 24
-14 3 -25 10 -25 16 0 5 -20 18 -45 29 -25 11 -45 24 -45 28 0 8 -45 32 -58
30 -4 0 1 -6 12 -12z m256 -173 l25 -15 -25 7 c-14 3 -29 10 -34 15 -16 14 6
10 34 -7z m-185 -614 c3 -6 -1 -7 -9 -4 -18 7 -21 14 -7 14 6 0 13 -4 16 -10z
m2265 -380 c0 -5 -4 -10 -10 -10 -5 0 -10 5 -10 10 0 6 5 10 10 10 6 0 10 -4
10 -10z m-820 -362 c10 -6 7 -7 -10 -2 -14 3 -32 11 -40 16 -10 6 -7 7 10 2
14 -3 32 -11 40 -16z m116 -39 c265 -92 489 -169 493 -169 2 0 2 -2 -1 -5 -8
-8 -570 184 -587 201 -8 8 6 4 95 -27z m464 -129 c0 -5 -2 -10 -4 -10 -3 0 -8
5 -11 10 -3 6 -1 10 4 10 6 0 11 -4 11 -10z"/>
<path d="M13145 13929 c-11 -16 -1 -19 13 -3 7 8 8 14 3 14 -5 0 -13 -5 -16
-11z"/>
<path d="M13450 13835 c0 -8 7 -15 15 -15 8 0 15 4 15 9 0 5 -7 11 -15 15 -9
3 -15 0 -15 -9z"/>
<path d="M17110 13651 c0 -6 5 -13 10 -16 6 -3 10 1 10 9 0 9 -4 16 -10 16 -5
0 -10 -4 -10 -9z"/>
<path d="M13550 13630 c0 -5 5 -10 10 -10 6 0 10 5 10 10 0 6 -4 10 -10 10 -5
0 -10 -4 -10 -10z"/>
<path d="M13520 13622 c0 -5 -27 -17 -60 -27 -56 -17 -79 -35 -45 -35 8 0 15
4 15 10 0 5 7 7 15 4 8 -4 15 -1 15 5 0 6 7 8 15 5 8 -4 15 -1 15 5 0 6 3 10
8 9 4 0 15 2 25 6 18 9 23 26 7 26 -5 0 -10 -4 -10 -8z"/>
<path d="M17076 13564 c-25 -24 -19 -36 9 -18 25 16 33 34 16 34 -5 0 -17 -7
-25 -16z"/>
<path d="M13370 13560 c0 -5 5 -10 11 -10 5 0 7 5 4 10 -3 6 -8 10 -11 10 -2
0 -4 -4 -4 -10z"/>
<path d="M27295 13548 c-48 -24 -102 -73 -119 -108 -33 -65 -27 -170 25 -425
33 -163 34 -219 3 -374 -41 -201 -139 -331 -251 -331 -115 0 -184 95 -235 320
-19 84 -21 132 -24 409 -2 228 -6 316 -15 321 -6 4 -48 -12 -93 -37 -201 -110
-286 -147 -342 -148 -75 -2 -84 -14 -49 -65 41 -59 86 -83 144 -78 26 3 68 15
93 26 24 12 47 22 50 22 3 0 8 -91 11 -202 13 -427 88 -639 259 -734 47 -26
63 -29 138 -29 78 0 90 3 148 34 36 20 83 57 108 85 50 57 124 199 150 291
l17 59 28 -59 c38 -80 80 -129 132 -154 75 -36 179 -22 254 35 43 33 93 120
93 162 0 80 -49 97 -90 31 -31 -51 -82 -83 -115 -75 -102 26 -244 523 -251
879 -2 81 -6 152 -9 157 -8 13 -14 12 -60 -12z"/>
<path d="M17030 13530 c0 -5 5 -10 10 -10 6 0 10 5 10 10 0 6 -4 10 -10 10 -5
0 -10 -4 -10 -10z"/>
<path d="M6050 13526 c0 -2 7 -7 16 -10 8 -3 12 -2 9 4 -6 10 -25 14 -25 6z"/>
<path d="M16993 13508 c-23 -11 -31 -28 -14 -28 10 0 41 28 41 36 0 5 0 5 -27
-8z"/>
<path d="M13190 13490 c0 -5 5 -10 11 -10 5 0 7 5 4 10 -3 6 -8 10 -11 10 -2
0 -4 -4 -4 -10z"/>
<path d="M6124 13475 c11 -8 25 -15 30 -15 6 0 2 7 -8 15 -11 8 -25 15 -30 15
-6 0 -2 -7 8 -15z"/>
<path d="M13160 13480 c0 -5 5 -10 11 -10 5 0 7 5 4 10 -3 6 -8 10 -11 10 -2
0 -4 -4 -4 -10z"/>
<path d="M16945 13470 c3 -5 8 -10 11 -10 2 0 4 5 4 10 0 6 -5 10 -11 10 -5 0
-7 -4 -4 -10z"/>
<path d="M16908 13450 c-10 -9 -18 -21 -18 -26 0 -5 4 -4 8 2 4 6 15 15 26 21
10 6 15 13 10 15 -5 3 -17 -2 -26 -12z"/>
<path d="M6179 13436 c14 -16 51 -28 51 -16 0 4 -14 13 -31 19 -26 9 -29 9
-20 -3z"/>
<path d="M25725 12952 c-37 -29 -71 -67 -88 -99 -31 -57 -139 -444 -182 -648
-14 -72 -29 -137 -31 -146 -3 -10 -29 -27 -60 -39 -114 -46 -174 -115 -174
-198 0 -51 27 -62 62 -25 20 21 117 83 131 83 3 0 3 -71 0 -157 -5 -178 5
-233 49 -266 22 -17 31 -18 60 -8 19 6 59 33 89 60 l54 48 -28 40 c-15 22 -32
65 -38 98 -11 57 -8 239 4 251 2 3 67 31 143 63 77 32 167 72 201 89 34 18 67
32 72 32 5 0 28 -30 52 -67 66 -102 194 -229 247 -244 58 -17 102 4 142 68 41
65 39 80 -16 103 -64 28 -137 107 -236 256 -146 221 -260 447 -319 634 -44
141 -47 143 -134 72z m163 -640 c18 -29 32 -55 32 -58 0 -10 -305 -144 -326
-144 -9 0 4 97 27 210 18 90 76 306 86 323 3 5 38 -56 77 -135 40 -79 87 -167
104 -196z"/>
<path d="M19855 12900 c-188 -39 -500 -208 -643 -349 -69 -67 -147 -111 -243
-136 -69 -18 -185 -17 -369 5 -52 6 -132 8 -177 5 -68 -6 -86 -11 -106 -31
-26 -26 -45 -80 -54 -153 -4 -40 -2 -51 15 -67 109 -102 767 -62 1042 63 44
20 90 62 90 82 1 71 96 161 170 161 58 0 152 53 212 120 48 52 158 247 158
278 0 12 -32 33 -47 31 -4 -1 -26 -5 -48 -9z"/>
<path d="M9038 12853 c7 -3 16 -2 19 1 4 3 -2 6 -13 5 -11 0 -14 -3 -6 -6z"/>
<path d="M9096 12835 c17 -8 44 -16 60 -20 l29 -5 -30 14 c-16 7 -43 16 -60
19 l-30 6 31 -14z"/>
<path d="M9315 12780 c27 -12 43 -12 25 0 -8 5 -22 9 -30 9 -10 0 -8 -3 5 -9z"/>
<path d="M24860 12588 c-71 -52 -188 -110 -419 -210 -218 -94 -294 -131 -340
-165 -47 -36 -71 -94 -71 -175 0 -60 2 -68 19 -68 10 0 30 15 43 33 40 51 89
97 136 124 24 14 45 24 47 22 10 -11 77 -353 69 -356 -5 -2 -24 -12 -42 -23
-38 -23 -57 -62 -66 -137 -6 -44 -4 -52 11 -55 10 -2 42 14 71 36 30 22 56 35
61 30 4 -5 23 -78 40 -162 44 -213 67 -280 105 -318 85 -85 217 -64 442 67
197 115 243 168 244 275 0 43 -3 53 -19 57 -13 3 -28 -4 -43 -20 -85 -91 -288
-201 -387 -210 -91 -9 -92 -7 -171 345 -7 30 -9 57 -4 61 5 4 65 32 134 62
172 75 220 125 220 235 0 47 -24 50 -71 10 -72 -61 -316 -177 -324 -153 -6 18
-74 342 -72 344 1 0 76 33 167 73 198 85 253 120 281 177 26 53 31 136 9 139
-8 2 -40 -16 -70 -38z"/>
<path d="M8696 12281 c19 -17 279 -105 264 -89 -7 8 -250 98 -263 98 -7 0 -7
-3 -1 -9z"/>
<path d="M23475 11996 c-155 -51 -302 -143 -425 -267 -176 -177 -230 -338
-150 -447 42 -58 61 -49 95 46 77 217 208 377 376 461 158 79 241 75 281 -16
18 -41 20 -54 10 -104 -6 -31 -20 -79 -32 -108 -20 -46 -29 -54 -86 -82 -69
-32 -91 -57 -105 -116 -10 -47 -1 -110 17 -117 20 -8 92 20 131 50 38 29 133
47 198 37 118 -17 191 -126 171 -254 -23 -144 -187 -290 -342 -306 -94 -10
-83 -39 -199 517 -74 350 -78 360 -137 360 -23 0 -137 -74 -153 -100 -3 -4 6
-30 20 -57 16 -32 50 -171 105 -428 45 -209 89 -396 98 -415 41 -85 135 -102
270 -50 217 84 407 248 491 423 55 115 63 195 31 299 -24 78 -70 130 -147 165
-54 25 -181 48 -215 40 -10 -3 -18 -4 -18 -2 0 2 15 35 34 72 57 114 70 199
44 287 -37 121 -191 169 -363 112z"/>
<path d="M17750 11998 c-47 -5 -103 -14 -125 -20 -173 -48 -307 -106 -332
-145 -15 -23 -15 -26 3 -44 45 -45 213 -46 379 -3 272 70 438 148 411 193 -19
30 -159 38 -336 19z"/>
<path d="M16803 11710 c-32 -13 -29 -24 17 -54 75 -49 220 -46 250 7 14 24 13
27 -5 41 -23 17 -223 22 -262 6z"/>
<path d="M18095 9471 c-88 -32 -152 -69 -213 -125 -153 -142 -175 -355 -51
-490 57 -63 137 -107 299 -166 211 -78 289 -126 316 -195 22 -58 7 -123 -44
-190 -56 -74 -132 -110 -232 -110 -67 0 -82 3 -119 28 -23 15 -55 49 -72 75
-16 26 -39 50 -50 54 -17 7 -23 1 -41 -40 -45 -99 -31 -174 43 -234 46 -37
146 -62 212 -53 289 40 513 308 457 546 -18 75 -41 117 -91 167 -62 61 -145
105 -327 172 -194 71 -218 83 -242 123 -65 106 -4 245 129 292 64 22 119 19
179 -11 29 -14 59 -23 67 -20 19 7 24 76 10 134 -14 58 -128 79 -230 43z"/>
<path d="M15590 8408 c-71 -52 -188 -110 -419 -210 -218 -94 -294 -131 -340
-165 -47 -36 -71 -94 -71 -175 0 -60 2 -68 19 -68 10 0 30 15 43 33 40 51 89
97 136 124 24 14 45 24 47 22 10 -11 77 -353 69 -356 -5 -2 -24 -12 -42 -23
-38 -23 -57 -62 -66 -137 -6 -44 -4 -52 11 -55 10 -2 42 14 71 36 30 22 56 35
61 30 4 -5 23 -78 40 -162 44 -213 67 -280 105 -318 85 -85 217 -64 442 67
197 115 243 168 244 275 0 43 -3 53 -19 57 -13 3 -28 -4 -43 -20 -85 -91 -288
-201 -387 -210 -91 -9 -92 -7 -171 345 -7 30 -9 57 -4 61 5 4 65 32 134 62
172 75 220 125 220 235 0 47 -24 50 -71 10 -72 -61 -316 -177 -324 -153 -6 18
-74 342 -72 344 1 0 76 33 167 73 198 85 253 120 281 177 26 53 31 136 9 139
-8 2 -40 -16 -70 -38z"/>
<path d="M12790 7208 c-71 -52 -188 -110 -419 -210 -218 -94 -294 -131 -340
-165 -47 -36 -71 -94 -71 -175 0 -60 2 -68 19 -68 10 0 30 15 43 33 40 51 89
97 136 124 24 14 45 24 47 22 10 -11 77 -353 69 -356 -5 -2 -24 -12 -42 -23
-38 -23 -57 -62 -66 -137 -6 -44 -4 -52 11 -55 10 -2 42 14 71 36 30 22 56 35
61 30 4 -5 23 -78 40 -162 44 -213 67 -280 105 -318 85 -85 217 -64 442 67
197 115 243 168 244 275 0 43 -3 53 -19 57 -13 3 -28 -4 -43 -20 -85 -91 -288
-201 -387 -210 -91 -9 -92 -7 -171 345 -7 30 -9 57 -4 61 5 4 65 32 134 62
172 75 220 125 220 235 0 47 -24 50 -71 10 -72 -61 -316 -177 -324 -153 -6 18
-74 342 -72 344 1 0 76 33 167 73 198 85 253 120 281 177 26 53 31 136 9 139
-8 2 -40 -16 -70 -38z"/>
<path d="M9805 5921 c-27 -16 -60 -40 -72 -53 -23 -24 -23 -25 -7 -99 31 -143
2 -484 -56 -672 -27 -86 -73 -142 -111 -132 -38 9 -147 95 -225 177 -38 40
-133 147 -210 238 -246 288 -279 306 -380 205 -52 -53 -56 -78 -13 -101 39
-20 105 -80 169 -154 l48 -56 62 -404 c82 -543 93 -586 151 -610 36 -15 92 3
157 51 48 35 54 64 16 81 -48 22 -64 72 -143 448 -21 102 -38 186 -37 187 1 1
42 -37 92 -86 145 -143 272 -212 363 -196 132 22 221 223 254 573 l12 124 59
-194 c129 -421 173 -535 231 -592 60 -60 120 -52 189 25 51 57 53 63 30 81
-49 38 -86 85 -112 141 -30 63 -177 532 -253 802 -48 173 -70 222 -105 235
-39 15 -55 12 -109 -19z"/>
</g>
</svg>
